<svg xmlns="http://www.w3.org/2000/svg" viewBox="0 0 115.96 114.49">
  <g id="smileys">
    <path id="yellow" d="M16.61,95.26c9.23,8.9,21.64,15,35.49,17.5,14.42,2.65,30.38,3.12,42.56-5C104.58,101.1,110.42,89.65,113,78c4.74-21.83-1.56-46.19-17.64-61.68C79.93,1.49,55.77-3,35.29,1.92,15.83,6.62,2,31.47.29,49.87-1.49,68.58,5.08,84.14,16.61,95.26Z" style="fill:#f9e101"/>
    <path id="outline" d="M72.85,113.43A88,88,0,0,1,57,111.85c-13.06-2.4-24.52-8.06-33.13-16.36h0C12.42,84.4,7,69.21,8.52,52.72,10.26,34.35,24.06,11.8,41.82,7.51,62.28,2.58,84.33,7.89,98,21.05c14.6,14.06,21.09,36.7,16.54,57.67-2.72,12.49-8.92,22.52-17.46,28.24C90.6,111.28,82.6,113.43,72.85,113.43ZM57.24,10.69A60.65,60.65,0,0,0,43,12.38c-12.66,3-27.54,20.18-29.5,40.81-1.44,15.17,3.37,28.55,13.89,38.7h0c7.9,7.62,18.47,12.82,30.56,15,15.92,2.93,27.81,1.57,36.35-4.13,7.46-5,12.91-13.92,15.35-25.14,4.19-19.32-1.74-40.12-15.12-53C85.18,15.65,71.46,10.69,57.24,10.69Z" style="fill:#071d49"/><path id="left-eye" d="M41.93,52.49a8.81,8.81,0,0,0,1.46-8.76,5.49,5.49,0,0,0-1.61-2.27,5.1,5.1,0,0,0-3.49-1,6.71,6.71,0,0,0-4.72,11C35.52,53.82,39.79,55,41.93,52.49Z" style="fill:#071d49"/><path id="right-eye" d="M75.28,41.23A6.23,6.23,0,0,0,71,47.93a6.75,6.75,0,0,0,4.5,5.12c2.07.83,4.13-.28,5.54-1.9a6.47,6.47,0,0,0,1.34-6.3A6,6,0,0,0,75.28,41.23Z" style="fill:#071d49"/><path id="unimpressed" d="M40.88,77.18a2.5,2.5,0,0,1-.55-4.94C54,69.16,67.87,69.49,78.48,70.13a2.5,2.5,0,1,1-.3,5c-10.27-.61-23.74-1-36.74,2A2.67,2.67,0,0,1,40.88,77.18Z" style="fill:#071d49"/></g></svg>
