<svg xmlns="http://www.w3.org/2000/svg" viewBox="0 0 115.69 114.49">
  <g id="smileys">
    <path id="green" d="M97.88,95.26c-9.23,8.9-21.64,15-35.5,17.5-14.41,2.65-30.37,3.12-42.56-5C9.9,101.1,4.07,89.65,1.54,78-3.2,56.16,3.09,31.8,19.18,16.31,34.56,1.49,58.71-3,79.2,1.92c19.46,4.7,33.25,29.55,35,47.95C116,68.58,109.41,84.14,97.88,95.26Z" style="fill:#79d047"/>
    <path id="outline" d="M51.09,111.13c-9.75,0-17.75-2.15-24.22-6.47C18.33,98.94,12.13,88.92,9.41,76.42,4.86,55.45,11.35,32.81,26,18.75,39.61,5.59,61.66.28,82.12,5.22c17.76,4.28,31.56,26.83,33.31,45.2C117,66.92,111.52,82.1,100,93.19h0c-8.61,8.3-20.07,14-33.13,16.36A88,88,0,0,1,51.09,111.13ZM66.7,8.39c-14.23,0-27.94,5-37.28,14C16,35.24,10.11,56.05,14.3,75.36c2.44,11.22,7.89,20.15,15.35,25.14,8.54,5.71,20.43,7.06,36.35,4.13,12.09-2.22,22.66-7.42,30.56-15,10.53-10.15,15.33-23.53,13.89-38.69-2-20.64-16.84-37.77-29.5-40.82A60.65,60.65,0,0,0,66.7,8.39Zm31.59,83h0Z" style="fill:#071d49"/>
    <path id="grin" d="M59.19,90.56a19.08,19.08,0,0,1-5.83-.89c-12-3.81-14.08-15-16-24.84-.37-2-.73-3.84-1.15-5.65A2.25,2.25,0,0,1,40,57c3.07,2.84,9.79,6,14.11,6.7,9.69,1.49,19.78-1.59,26.33-8a2.25,2.25,0,0,1,3.82,1.44c.73,9.54-1.67,18.24-6.75,24.49A24.08,24.08,0,0,1,59.19,90.56ZM41.78,63.76l0,.23c1.8,9.46,3.5,18.4,12.89,21.4,6.48,2.06,14.41-.66,19.26-6.63C77.54,74.4,79.55,68.57,79.83,62a36.51,36.51,0,0,1-26.44,6.14A37.11,37.11,0,0,1,41.78,63.76Z" style="fill:#071d49"/><path id="left-eye" d="M44.87,44a8.75,8.75,0,0,0,1.46-8.75A5.5,5.5,0,0,0,44.73,33a5.17,5.17,0,0,0-3.5-1,6.71,6.71,0,0,0-4.72,11C38.47,45.37,42.73,46.59,44.87,44Z" style="fill:#071d49"/>
    <path id="right-eye" d="M78.23,32.78a6.26,6.26,0,0,0-4.34,6.7A6.75,6.75,0,0,0,78.4,44.6c2.07.84,4.12-.28,5.54-1.9a6.52,6.52,0,0,0,1.34-6.3A6,6,0,0,0,78.23,32.78Z" style="fill:#071d49"/></g>
  </svg>
