<svg xmlns="http://www.w3.org/2000/svg" viewBox="0 0 114.62 114.49">
  <g id="smileys">
  <path id="yellow-green" d="M95.26,97.88c8.9-9.23,15-21.64,17.5-35.5,2.65-14.41,3.12-30.37-5-42.56C101.1,9.9,89.65,4.07,78,1.54,56.16-3.2,31.8,3.09,16.31,19.18,1.49,34.56-3,58.71,1.92,79.2c4.7,19.46,29.55,33.25,47.95,35C68.58,116,84.14,109.41,95.26,97.88Z" style="fill:#bae86d"/>
<path id="outline" d="M59.41,112.13c-1.81,0-3.65-.09-5.5-.26C35.54,110.12,13,96.32,8.7,78.56,3.77,58.1,9.08,36.05,22.24,22.39,36.3,7.8,58.94,1.31,79.91,5.86c12.49,2.71,22.52,8.91,28.23,17.45,6.47,9.67,8.07,22.77,4.9,40-2.4,13.07-8.06,24.52-16.36,33.13h0A50.91,50.91,0,0,1,59.41,112.13Zm7-102.71C51,9.42,36,15.33,25.84,25.86,13.83,38.32,9,58.55,13.56,77.39c3.06,12.66,20.19,27.54,40.82,29.5,15.17,1.44,28.55-3.36,38.7-13.89h0c7.62-7.9,12.82-18.47,15-30.56C111,46.52,109.69,34.63,104,26.09c-5-7.46-13.92-12.91-25.14-15.35A59,59,0,0,0,66.39,9.42ZM94.88,94.73h0Z" style="fill:#071d49"/><path id="left-eye" d="M41.65,49.4a8.8,8.8,0,0,0,1.46-8.75,5.53,5.53,0,0,0-1.61-2.28,5.15,5.15,0,0,0-3.49-1,6.71,6.71,0,0,0-4.72,11C35.24,50.73,39.51,52,41.65,49.4Z" style="fill:#071d49"/><path id="right-eye" d="M75,38.14a6.25,6.25,0,0,0-4.33,6.7A6.76,6.76,0,0,0,75.17,50c2.07.84,4.13-.28,5.54-1.89a6.49,6.49,0,0,0,1.34-6.31A6,6,0,0,0,75,38.14Z" style="fill:#071d49"/><path id="smile" d="M79.6,64.52a2.91,2.91,0,0,0-3.53,2.12,43,43,0,0,1-2.58,8.08,12.49,12.49,0,0,1-4.67,5.51,17.91,17.91,0,0,1-7,1.79c-4.62.49-10.58.76-15.6-1.45-3.85-1.69-7.9-5.72-7.71-10.56a2.91,2.91,0,0,0-5.82-.23c-.3,7.6,5.4,13.57,11.18,16.12,6.28,2.76,13.22,2.47,18.56,1.91,1.25-.13,2.53-.29,3.8-.55a18.08,18.08,0,0,0,5.53-2,18.06,18.06,0,0,0,7-8,48.19,48.19,0,0,0,3-9.19A2.9,2.9,0,0,0,79.6,64.52Z" style="fill:#071d49"/></g></svg>
