<svg xmlns="http://www.w3.org/2000/svg" viewBox="0 0 115.14 114.49"><g id="smileys"><path id="orange" d="M97.88,19.22c-9.23-8.9-21.64-14.95-35.5-17.5C48-.93,32-1.39,19.82,6.75,9.9,13.38,4.07,24.84,1.54,36.5-3.2,58.33,3.09,82.68,19.18,98.18c15.38,14.82,39.53,19.33,60,14.38,19.46-4.69,33.25-29.55,35-47.94C116,45.91,109.41,30.34,97.88,19.22Z" style="fill:#ffb228"/>
<path id="outline" d="M66.21,111.15c-15.52,0-30.53-5.45-40.8-15.35C10.81,81.74,4.32,59.1,8.87,38.13c2.71-12.5,8.91-22.52,17.46-28.24C36,3.43,49.1,1.83,66.36,5c13.06,2.4,24.51,8.06,33.12,16.36,11.5,11.09,17,26.27,15.4,42.77-1.75,18.37-15.54,40.92-33.3,45.2A65.35,65.35,0,0,1,66.21,111.15ZM50.55,8.42c-8.74,0-15.82,1.87-21.44,5.63C21.64,19,16.19,28,13.76,39.19,9.57,58.5,15.5,79.31,28.88,92.2c12.46,12,32.68,16.82,51.53,12.27,12.66-3,27.53-20.18,29.49-40.82C111.34,48.49,106.54,35.11,96,25h0c-7.9-7.62-18.46-12.82-30.56-15A82.58,82.58,0,0,0,50.55,8.42Z" style="fill:#071d49"/><path id="left-eye" d="M40.11,50.49a8.79,8.79,0,0,0,1.47-8.76A5.69,5.69,0,0,0,40,39.45a5.16,5.16,0,0,0-3.5-1,6.71,6.71,0,0,0-4.72,11C33.71,51.82,38,53,40.11,50.49Z" style="fill:#071d49"/><path id="right-eye" d="M73.47,39.22a6.25,6.25,0,0,0-4.33,6.71,6.74,6.74,0,0,0,4.5,5.12c2.07.83,4.12-.28,5.54-1.9a6.47,6.47,0,0,0,1.34-6.3A6,6,0,0,0,73.47,39.22Z" style="fill:#071d49"/><path id="sad" d="M40.76,82a2.43,2.43,0,0,1-1.56-.56A2.49,2.49,0,0,1,38.82,78c4.69-5.81,10.44-12.17,19.32-14,7.44-1.53,14.33,2.31,20.42,5.71,1.11.61,2.21,1.23,3.3,1.8a2.5,2.5,0,1,1-2.34,4.42c-1.12-.59-2.25-1.22-3.39-1.86-5.59-3.11-11.37-6.34-17-5.17C52.59,70.22,48,74.55,42.71,81.11A2.5,2.5,0,0,1,40.76,82Z" style="fill:#071d49"/></g></svg>
