<svg xmlns="http://www.w3.org/2000/svg" viewBox="0 0 115.5 114.49">
  <g id="smileys">
  <path id="red" d="M19.22,16.61C10.32,25.84,4.27,38.25,1.72,52.1c-2.65,14.42-3.11,30.38,5,42.56,6.63,9.92,18.09,15.76,29.75,18.29,21.83,4.74,46.18-1.56,61.68-17.64,14.82-15.38,19.33-39.54,14.38-60C107.87,15.83,83,2,64.62.29,45.91-1.49,30.34,5.08,19.22,16.61Z" style="fill:#ff3b2d"/>
  <path id="outline" d="M56,111.47A63.26,63.26,0,0,1,42.48,110C30,107.32,20,101.12,14.24,92.57c-6.46-9.67-8.06-22.76-4.89-40C11.75,39.48,17.41,28,25.71,19.42h0C36.8,7.92,52,2.45,68.48,4c18.37,1.75,40.92,15.55,45.21,33.3,4.93,20.47-.38,42.52-13.54,56.18C89.07,105,72.67,111.46,56,111.47ZM62.8,8.75A45.31,45.31,0,0,0,29.31,22.89h0c-7.62,7.9-12.82,18.47-15,30.56C11.34,69.37,12.7,81.26,18.4,89.79c5,7.47,13.92,12.92,25.14,15.35,19.32,4.2,40.12-1.74,53-15.11,12-12.46,16.82-32.69,12.27-51.53C105.77,25.83,88.64,11,68,9,66.25,8.83,64.51,8.75,62.8,8.75ZM27.51,21.15h0Z" style="fill:#071d49"/><path id="right-eye" d="M82.75,40.05a2.5,2.5,0,0,0-3.41-.95L67.83,45.61a2.51,2.51,0,0,0-1,3.41,2.47,2.47,0,0,0,2,1.24h0a6.78,6.78,0,0,0,4.51,5.12c2.07.83,4.12-.28,5.54-1.9a6.49,6.49,0,0,0,1.34-6.3,5.29,5.29,0,0,0-1.37-2.08l2.92-1.65A2.5,2.5,0,0,0,82.75,40.05Z" style="fill:#071d49"/><path id="left-eye" d="M42.42,43.83,31,38.17a2.5,2.5,0,1,0-2.22,4.48l3.51,1.74a6.7,6.7,0,0,0-1.88,2.47,6.88,6.88,0,0,0,1.05,7c2,2.31,6.22,3.54,8.36,1a8.91,8.91,0,0,0,2-6.33,2.48,2.48,0,0,0,1.69-1.31A2.51,2.51,0,0,0,42.42,43.83Z" style="fill:#071d49"/><path id="frown" d="M38,83.23a3.11,3.11,0,0,1-.43,0,2.5,2.5,0,0,1-2-2.9A18.34,18.34,0,0,1,52,65.51,18.37,18.37,0,0,1,70.3,78.06a2.5,2.5,0,0,1-4.78,1.49,13.39,13.39,0,0,0-13.16-9,13.4,13.4,0,0,0-11.9,10.67A2.5,2.5,0,0,1,38,83.23Z" style="fill:#071d49"/></g></svg>
