<?xml version="1.0" encoding="iso-8859-1"?>
<!-- Generator: Adobe Illustrator 13.0.2, SVG Export Plug-In . SVG Version: 6.00 Build 14948)  -->
<!DOCTYPE svg PUBLIC "-//W3C//DTD SVG 1.1//EN" "http://www.w3.org/Graphics/SVG/1.1/DTD/svg11.dtd">
<svg version="1.1" id="Layer_1" xmlns="http://www.w3.org/2000/svg" xmlns:xlink="http://www.w3.org/1999/xlink" x="0px" y="0px"
	 width="720px" height="720px" viewBox="0 0 719.996 720.004" style="enable-background:new 0 0 719.996 720.004;"
	 xml:space="preserve">
<g>
	<g>
		<polyline style="fill-rule:evenodd;clip-rule:evenodd;fill:#7D7FBD;" points="206.473,560.277 140.441,590.16 167.938,521.746 		
			"/>
		<polyline style="fill-rule:evenodd;clip-rule:evenodd;fill:#004B8C;" points="140.734,589.867 188.398,542.207 206.473,560.277 		
			"/>
		<polyline style="fill-rule:evenodd;clip-rule:evenodd;fill:#7D7FBD;" points="153.578,214.855 123.551,148.824 191.988,176.301 		
			"/>
		<polyline style="fill-rule:evenodd;clip-rule:evenodd;fill:#004B8C;" points="123.863,148.973 171.508,196.781 153.578,214.855 		
			"/>
		<polyline style="fill-rule:evenodd;clip-rule:evenodd;fill:#7D7FBD;" points="113.094,415.52 0,372.938 113.094,324.672 		"/>
		<polyline style="fill-rule:evenodd;clip-rule:evenodd;fill:#004B8C;" points="0.434,372.938 113.094,372.938 113.094,415.52 		"/>
		<polyline style="fill-rule:evenodd;clip-rule:evenodd;fill:#004B8C;" points="306.574,112.969 349.156,0 397.426,112.969 		"/>
		<polyline style="fill-rule:evenodd;clip-rule:evenodd;fill:#7D7FBD;" points="349.156,0.457 349.156,112.969 306.574,112.969 		
			"/>
		<polyline style="fill-rule:evenodd;clip-rule:evenodd;fill:#004B8C;" points="327.348,606.906 369.781,720.004 418.027,606.906 		
			"/>
		<polyline style="fill-rule:evenodd;clip-rule:evenodd;fill:#7D7FBD;" points="369.781,719.562 369.781,606.906 327.348,606.906 		
			"/>
		<polyline style="fill-rule:evenodd;clip-rule:evenodd;fill:#7D7FBD;" points="606.887,413.422 719.996,370.84 606.887,322.574 		
			"/>
		<polyline style="fill-rule:evenodd;clip-rule:evenodd;fill:#004B8C;" points="719.547,370.84 606.887,370.84 606.887,413.422 		
			"/>
		<polyline style="fill-rule:evenodd;clip-rule:evenodd;fill:#7D7FBD;" points="549.82,202.301 579.848,136.27 511.406,163.766 		
			"/>
		<polyline style="fill-rule:evenodd;clip-rule:evenodd;fill:#004B8C;" points="579.559,136.562 531.887,184.227 549.82,202.301 		
			"/>
		<polyline style="fill-rule:evenodd;clip-rule:evenodd;fill:#7D7FBD;" points="523.07,552.664 590.594,578.953 559.387,512.031 		
			"/>
		<polyline style="fill-rule:evenodd;clip-rule:evenodd;fill:#004B8C;" points="590.453,578.664 540.109,533.695 523.07,552.664 		
			"/>
		<path style="fill-rule:evenodd;clip-rule:evenodd;fill:#FFFFFF;" d="M356.934,614.375c140.141,0,253.832-113.691,253.832-253.848
			c0-140.297-113.691-253.848-253.832-253.848c-140.293,0-253.844,113.551-253.844,253.848
			C103.09,500.684,216.641,614.375,356.934,614.375"/>
		<path style="fill:none;stroke:#004B8C;stroke-width:6.2751;stroke-miterlimit:2.6131;" d="M356.934,614.375
			c140.141,0,253.832-113.691,253.832-253.848c0-140.297-113.691-253.848-253.832-253.848
			c-140.293,0-253.844,113.551-253.844,253.848C103.09,500.684,216.641,614.375,356.934,614.375z"/>
		<path style="fill-rule:evenodd;clip-rule:evenodd;fill:#7D7FBD;" d="M359.18,546.832c102.781,0,186.016-83.211,186.016-186.012
			c0-102.781-83.234-186.012-186.016-186.012c-102.801,0-186.012,83.23-186.012,186.012
			C173.168,463.621,256.379,546.832,359.18,546.832"/>
		<path style="fill:none;stroke:#FFFFFF;stroke-width:4.1834;stroke-linecap:square;stroke-miterlimit:2.6131;" d="M359.18,546.832
			c102.781,0,186.016-83.211,186.016-186.012c0-102.781-83.234-186.012-186.016-186.012c-102.801,0-186.012,83.23-186.012,186.012
			C173.168,463.621,256.379,546.832,359.18,546.832z"/>
		<path style="fill:none;stroke:#FFFFFF;stroke-width:4.1834;stroke-linecap:square;stroke-miterlimit:2.6131;" d="M359.18,547.285
			c82.32,0,149.098-83.523,149.098-186.465c0-102.93-66.777-186.449-149.098-186.449c-82.34,0-149.117,83.52-149.117,186.449
			C210.062,463.762,276.84,547.285,359.18,547.285z"/>
		<path style="fill:none;stroke:#FFFFFF;stroke-width:4.1834;stroke-linecap:square;stroke-miterlimit:2.6131;" d="M359.18,547.285
			c46.148,0,83.664-83.523,83.664-186.465c0-102.93-37.516-186.449-83.664-186.449c-46.172,0-83.668,83.52-83.668,186.449
			C275.512,463.762,313.008,547.285,359.18,547.285z"/>
		
			<line style="fill:none;stroke:#FFFFFF;stroke-width:4.1834;stroke-miterlimit:2.6131;" x1="359.18" y1="546.395" x2="359.18" y2="175.262"/>
		
			<line style="fill:none;stroke:#FFFFFF;stroke-width:4.1834;stroke-miterlimit:2.6131;" x1="545.777" y1="367.25" x2="175.242" y2="367.105"/>
		
			<line style="fill:none;stroke:#FFFFFF;stroke-width:4.1834;stroke-miterlimit:2.6131;" x1="512.469" y1="466.895" x2="207.531" y2="466.895"/>
		
			<line style="fill:none;stroke:#FFFFFF;stroke-width:4.1834;stroke-miterlimit:2.6131;" x1="460.609" y1="514.566" x2="257.27" y2="514.566"/>
		
			<line style="fill:none;stroke:#FFFFFF;stroke-width:4.1834;stroke-miterlimit:2.6131;" x1="510.371" y1="257.289" x2="205.871" y2="257.289"/>
		
			<line style="fill:none;stroke:#FFFFFF;stroke-width:4.1834;stroke-miterlimit:2.6131;" x1="460.609" y1="207.387" x2="255.176" y2="207.387"/>
		<line style="fill-rule:evenodd;clip-rule:evenodd;" x1="178.395" y1="315.418" x2="539.508" y2="315.418"/>
		
			<line style="fill:none;stroke:#FFFFFF;stroke-width:4.1834;stroke-miterlimit:2.6131;" x1="178.395" y1="315.418" x2="539.508" y2="315.418"/>
		<line style="fill-rule:evenodd;clip-rule:evenodd;" x1="180.469" y1="414.918" x2="537.414" y2="414.918"/>
		
			<line style="fill:none;stroke:#FFFFFF;stroke-width:4.1834;stroke-miterlimit:2.6131;" x1="180.469" y1="414.918" x2="537.414" y2="414.918"/>
		<path style="fill-rule:evenodd;clip-rule:evenodd;fill:#FFDC88;" d="M537.867,358.887c1.781,3.426,2.672,5.234,2.672,5.234
			c6.73,15.539-10.457,3.586-10.457,3.586c1.664,12.535-12.84,1.641-12.84,1.641c4.047,9.855-7.762,3.133-7.762,3.133
			c-1.059,9.855-13.906-3.133-13.906-3.133s0-0.309,0,0c2.098,12.387-10,0.438-10,0.438s-0.309-0.746,0,0
			c3.879,11.203-11.516,0.309-11.516,0.309s-0.148-0.457,0,0c5.398,10.602-12.699,0.293-12.699,0.293s0-1.039,0,0
			c0.91,8.672-13.137-0.293-13.137-0.293s-0.312-0.746,0,0c3.594,11.062-14.793-1.055-14.793-1.055s-0.895-3.137,0,0
			c2.984,11.949-13.449-1.332-13.449-1.332s-0.602-1.348,0,0c3.133,10.004-15.395-2.551-15.395-2.551l-9.254,8.363
			c0,0,4.625,0.746,8.961,7.176c0,0-10.312,0.293-14.199,9.113l1.352,0.746c19.422-1.781,30.777,16.145,30.777,16.145
			c27.039-5.227,37.352-32.27,37.352-32.27c6.266,13.594,29.137,19.715,29.137,19.715c-9.426,15.688-7.328,40.484-7.328,40.484
			c-12.391,12.555-7.324,34.219-7.324,34.219c-17.617,9.422-24.797,27.039-24.797,27.039c-31.234-7.32-41.523,22.867-41.523,22.867
			c18.672-63.355-8.383-105.93-8.383-105.93c22.406,119.379-49.742,110.562-49.742,110.562
			c-73.211-3.594-50.797-77.242-50.797-77.242c8.219-23.902,26.891-38.41,26.891-38.41l-43.473-21.805
			c-17.637,8.215-30.191,12.406-30.191,12.406l-2.098,29.133c3.152,4.031,4.191,10.293,4.191,10.293l7.324,1.059
			c7.16,20.773,1.039,31.066,1.039,31.066l-16.582-16.582c-17.637-9.254-12.551-22.844-12.551-22.844l-2.098-23.762
			c-11.352-15.543-5.062-22.867-5.062-22.867c4.027-9.402,15.52-13.445,15.52-13.445l8.219-2.098
			c-1.641-3.422-2.676-6.723-3.277-9.402"/>
		<path style="fill-rule:evenodd;clip-rule:evenodd;fill:#E3BF01;" d="M411.906,456.438c13.449,31.086,9.273,44.68,9.273,44.68
			c13.598-12.992,12.539-35.254,12.539-35.254c8.215,14.48,15.543,30.023,15.543,30.023c6.121-24.945-7.328-43.617-7.328-43.617
			c15.543,15.543,32.125,16.578,32.125,16.578c-7.16-16.578-17.617-24.797-17.617-24.797c16.578,0,24.941-9.422,24.941-9.422
			c-19.711-11.352-37.352-11.352-37.352-11.352c39.445-2.094,44.68-29.133,44.68-29.133c-19.719,4.191-36.316,10.461-36.316,10.461
			c15.543-6.27,12.41-22.871,12.41-22.871l-5.23-7.305c-14.488,28.078-60.219,34.801-60.219,34.801l1.656,7.781
			C411.906,432.242,411.906,456.438,411.906,456.438"/>
		<path style="fill:none;stroke:#928900;stroke-width:2.0917;stroke-miterlimit:2.6131;" d="M421.93,500.371
			c0,0,14.633-49.309-19.137-87.262"/>
		<path style="fill:none;stroke:#928900;stroke-width:2.0917;stroke-miterlimit:2.6131;" d="M414.008,423.277
			c39.59,49.305,34.965,72.32,34.965,72.32"/>
		<path style="fill:none;stroke:#928900;stroke-width:2.0917;stroke-miterlimit:2.6131;" d="M481.383,434.629
			c-45.711,1.059-71.57-16.867-71.57-16.867c34.219,33.301,64.246,50.945,64.246,50.945"/>
		<path style="fill:none;stroke:#928900;stroke-width:2.0917;stroke-miterlimit:2.6131;" d="M488.418,395.035
			c-39.906,25.398-84.875,19.883-84.875,19.883c56.031-5.086,56.031-40.488,56.031-40.488"/>
		<path style="fill-rule:evenodd;clip-rule:evenodd;fill:#FFDC88;" d="M246.668,358.887c-0.75-3.734-0.75-6.117-0.75-6.117
			l-19.711-11.52l-14.504,17.637h-19.715l20.605-33.18c-1.93-17.617,15.688-14.48,15.688-14.48
			c10.316,1.035,9.277,14.48,9.277,14.48l23.301,15.543c12.992-37.352,26.441-38.848,33.766-45.113
			c7.32-6.121,11.949-25.398,11.949-25.398c-10.457-0.457-13.445-3.594-13.445-3.594l-2.68,5.09l-0.453,10.895l-15.086,2.094
			l-1.496-4.629l9.254-2.094v-5.668c-0.434-9.879-9.254-4.645-9.254-4.645l-6.285,7.781h-10.293l-0.602-20.316l18.215-25.398
			l2.555-13.449c5.664-7.324,9.855-8.816,9.855-8.816l1.039-8.363l8.219,3.734l0.602-8.816c6.266,2.094,10.914,6.719,10.914,6.719
			l21.809-1.055c14.484,6.141,26.441,21.23,26.441,21.23c15.996-6.125,23.754,6.262,23.754,6.262
			c43.625-16.121,71.117,14.047,71.117,14.047c47.211,46.32,78.148,100.562,87.113,117.141"/>
		<path style="fill-rule:evenodd;clip-rule:evenodd;fill:#FFDC88;" d="M211.703,358.887l-4.172,5.234
			c3.133,9.398-2.094,13.445-2.094,13.445l5.227,6.266l-17.785,22.867l-6.121-18.676c-8.363-22.867,5.23-29.137,5.23-29.137"/>
		<path style="fill-rule:evenodd;clip-rule:evenodd;fill:#FFDC88;" d="M368.891,365.613c24.797-3.59,38.848,16.723,38.848,16.723
			c-12.406,0-16.293,8.219-16.293,8.219c18.82-5.227,30.777,16.145,30.777,16.145c-15.543-2.094-19.711,5.668-19.711,5.668
			c11.496,5.223,19.25,17.18,19.25,17.18c1.062,7.781-5.66,6.141-5.66,6.141c-11.516-5.227-13.59,3.133-13.59,3.133
			c15.516,11.352,9.855,23.906,9.855,23.906c-2.555-6.289-9.855-0.602-9.855-0.602C402.512,405.641,368.891,365.613,368.891,365.613
			"/>
		<path style="fill-rule:evenodd;clip-rule:evenodd;fill:#AA9900;" d="M317.488,215.75c56.031,33.18,28.992,92.34,28.992,92.34
			C383.832,243.699,317.488,215.75,317.488,215.75"/>
		<path style="fill-rule:evenodd;clip-rule:evenodd;fill:#C9AA03;" d="M287.301,343.348l-13.449,13.445
			c-17.617,11.496-23.906,11.496-23.906,11.496l-5.062-14.027l11.352-16.145l4.625,3.133l0.602,10.457l4.172,4.051l11.371-7.18
			l-3.152-5.23"/>
		<path style="fill-rule:evenodd;clip-rule:evenodd;fill:#928900;" d="M306.574,270.738c22.266-4.191,18.074-23.902,18.074-23.902
			c4.191,22.844-20.605,31.664-20.605,31.664"/>
		<path style="fill-rule:evenodd;clip-rule:evenodd;fill:#FFFFFF;" d="M336.168,247.871c0,0,1.035,46.77-23.906,74.703l15.543-3.133
			c9.398-4.625,7.301-23.762,7.301-23.762C348.121,277.461,336.168,247.871,336.168,247.871"/>
		<path style="fill-rule:evenodd;clip-rule:evenodd;fill:#FFFFFF;" d="M309.129,326.766c-11.375,1.035-17.637,16.582-17.637,16.582
			c-2.098-8.82,1.637-18.074,1.637-18.074c4.625-4.793,10.914-6.871,10.914-6.871"/>
		<path style="fill-rule:evenodd;clip-rule:evenodd;fill:#FFFFFF;" d="M291.492,352.77c-30.031,26.891-45.574,33.16-45.574,33.16
			c1.039,14.48-6.266,16.578-6.266,16.578V431.5c7.305,5.227,6.266,18.672,6.266,18.672l-7.32-5.082
			c-6.27-9.402-4.172-24.941-4.172-24.941l-3.156-13.449l1.059-4.191l-2.094-4.172l-1.953-11.371l8.219-9.398l14.504-6.125
			l8.363-1.055l28.988-22.848C297.754,346.48,291.492,352.77,291.492,352.77"/>
		<path style="fill-rule:evenodd;clip-rule:evenodd;fill:#CBB500;" d="M373.949,310.184l-1.031-16.598
			c9.414-27.039,6.719-37.352,6.719-37.352l-1.492-9.398c13.449-7.184,24.941-15.543,24.941-15.543v8.816
			c-10.457,8.363-18.672,10.895-18.672,10.895c4.047,27.059-6.27,43.637-6.27,43.637"/>
		<polyline style="fill-rule:evenodd;clip-rule:evenodd;fill:#C9AA03;" points="285.367,263.414 294.625,255.195 301.945,254.16 
			300.91,259.387 295.684,258.328 		"/>
		<path style="fill-rule:evenodd;clip-rule:evenodd;fill:#928900;" d="M310.164,222.035c-2.094-16.602-10.312-21.828-10.312-21.828
			c2.094,14.504,0,19.734,0,19.734"/>
		<path style="fill-rule:evenodd;clip-rule:evenodd;fill:#FFFFFF;" d="M308.07,259.387c20.316-2.695,7.324-20.773,7.324-20.773
			C316.891,254.16,308.07,259.387,308.07,259.387"/>
		<path style="fill-rule:evenodd;clip-rule:evenodd;fill:#CBB500;" d="M218.883,329.898c8.363,3.137,11.953-1.637,11.953-1.637
			l15.082,17.18l-16.141-12.406C221.41,336.168,218.883,329.898,218.883,329.898"/>
		<path style="fill-rule:evenodd;clip-rule:evenodd;fill:#AA9900;" d="M254.137,437.762c2.098,11.957-2.531,19.277-2.531,19.277
			c9.254-5.828,6.121-18.676,6.121-18.676"/>
		<path style="fill-rule:evenodd;clip-rule:evenodd;fill:#CBB500;" d="M205.438,377.566c-10.461,5.227-16.586,9.855-16.586,9.855
			c11.352-3.59,18.078-7.18,18.078-7.18"/>
		<path style="fill-rule:evenodd;clip-rule:evenodd;fill:#FFFFFF;" d="M191.988,383.398c-3.137-10.918,4.625-21.375,4.625-21.375
			l20.172-33.762c0-6.125,6.27-16,6.27-16c-14.027-2.078-10.461,13.445-10.461,13.445l-20.605,33.18
			c-13.012,8.82-6.289,27.496-6.289,27.496"/>
		<path style="fill-rule:evenodd;clip-rule:evenodd;fill:#FFFFFF;" d="M302.406,220.977l-29.594,29.594
			c-2.094,14.48-8.816,25.398-8.816,25.398h-7.16l-0.602-20.316l16.578-22.723c1.039,6.121,0,12.41,0,12.41l27.039-25.398"/>
		<polyline style="fill-rule:evenodd;clip-rule:evenodd;fill:#CBB500;" points="263.559,268.641 260.859,271.34 259.824,254.594 
			270.285,244.738 272.812,245.34 261.461,255.195 		"/>
		<path style="fill-rule:evenodd;clip-rule:evenodd;fill:#CBB500;" d="M274.91,246.836c8.82-17.641,22.266-7.785,22.266-7.785
			c-4.047,7.328-10.918,8.82-10.918,8.82c13.594-9.859-0.891-7.762-0.891-7.762C280.141,241.148,274.91,246.836,274.91,246.836"/>
		<path style="fill-rule:evenodd;clip-rule:evenodd;fill:#CBB500;" d="M284.766,243.535c1.953-0.746,3.133-2.078,2.844-2.988
			c-0.309-0.895-2.098-1.184-4.047-0.438c-1.93,0.746-3.133,1.93-2.824,2.988C281.031,243.992,282.816,244.281,284.766,243.535"/>
		<polyline style="fill-rule:evenodd;clip-rule:evenodd;fill:#AA9900;" points="274.449,230.254 299.852,215.312 300.309,212.613 		
			"/>
		<polyline style="fill-rule:evenodd;clip-rule:evenodd;fill:#CBB500;" points="329.441,200.207 320.625,217.242 330.938,201.262 		
			"/>
		<polyline style="fill-rule:evenodd;clip-rule:evenodd;fill:#CBB500;" points="279.078,215.312 282.234,225.605 280.574,213.215 		
			"/>
		<polyline style="fill-rule:evenodd;clip-rule:evenodd;fill:#CBB500;" points="284.309,210.52 285.805,209.48 287.301,222.035 		
			"/>
		<polyline style="fill-rule:evenodd;clip-rule:evenodd;fill:#808285;" points="286.859,207.988 296.117,203.359 294.625,202.758 		
			"/>
		<polyline style="fill-rule:evenodd;clip-rule:evenodd;fill:#AA9900;" points="288.355,207.387 289.996,206.348 292.09,219.34 		
			"/>
		<polyline style="fill-rule:evenodd;clip-rule:evenodd;fill:#AA9900;" points="296.117,203.359 297.754,215.75 294.188,204.398 		
			"/>
		<path style="fill-rule:evenodd;clip-rule:evenodd;fill:#FFFFFF;" d="M308.07,278.5c5.684,1.059,8.82,0,8.82,0l-1.039,5.684
			c-2.988,1.039-4.648,0-4.648,0c-12.988,26.438-22.848,27.043-22.848,27.043C311.203,288.355,308.07,278.5,308.07,278.5"/>
		<path style="fill-rule:evenodd;clip-rule:evenodd;fill:#FFFFFF;" d="M286.258,304.5c-19.129,16.582-24.797,47.207-24.797,47.207
			l-0.602-10.457C278.5,297.176,286.258,304.5,286.258,304.5"/>
		<path style="fill-rule:evenodd;clip-rule:evenodd;fill:#AA9900;" d="M282.234,385.93c18.676-2.531,27.93-10.918,27.93-10.918
			c-7.18,14.504-22.266,14.504-22.266,14.504"/>
		<path style="fill-rule:evenodd;clip-rule:evenodd;fill:#928900;" d="M308.07,378.602c1.637,10.914-1.496,19.734-1.496,19.734
			l-17.328-9.129C305.227,386.676,308.07,378.602,308.07,378.602"/>
		<path style="fill-rule:evenodd;clip-rule:evenodd;fill:#AA9900;" d="M307.633,201.262c6.121,8.82,7.16,17.039,7.16,17.039
			l2.695-2.551C314.793,206.93,307.633,201.262,307.633,201.262"/>
		<path style="fill-rule:evenodd;clip-rule:evenodd;fill:#CBB500;" d="M317.926,244.281c5.688,13.445-6.121,14.504-6.121,14.504
			C328.387,259.824,317.926,244.281,317.926,244.281"/>
		<path style="fill-rule:evenodd;clip-rule:evenodd;fill:#AA9900;" d="M355.883,221.438c8.211,8.816,11.348,24.336,11.348,24.336
			c3.594-12.844,12.406-18.074,12.406-18.074c-8.812,3.133-12.84,7.184-12.84,7.184
			C363.062,224.109,355.883,221.438,355.883,221.438"/>
		<path style="fill-rule:evenodd;clip-rule:evenodd;fill:#CCBE00;" d="M310.164,355.297c3.133,12.41-4.625,17.641-4.625,17.641
			c-8.363,4.172-16.145,1.039-16.145,1.039c11.953-2.535,13.59-4.629,13.59-4.629C308.07,366.648,310.164,355.297,310.164,355.297"
			/>
		<path style="fill-rule:evenodd;clip-rule:evenodd;fill:#CBB500;" d="M248.453,384.891c17.641-2.555,28.551-12.41,28.551-12.41
			c17.184-14.648,16.125-22.41,16.125-22.41c-3.133,4.773-7.324,7.762-7.324,7.762l-29.57,22.863"/>
		<path style="fill-rule:evenodd;clip-rule:evenodd;fill:#FFFFFF;" d="M390.094,224.566c18.68,4.191,28.535,6.266,28.535,6.266
			c-7.762,6.145-17.617,20.773-17.617,20.773c11.957,11.348,18.074-0.602,18.074-0.602c35.254,29.59,59.77,29.137,59.77,29.137
			c-33.77-15.691-42.582-25.98-42.582-25.98c16.121,6.723,20.168,1.035,20.168,1.035c-22.723-8.816-31.523-23.902-31.523-23.902
			c13.449,3.59,25.402,9.855,25.402,9.855C421.18,214.711,390.094,224.566,390.094,224.566"/>
		<path style="fill-rule:evenodd;clip-rule:evenodd;fill:#FFEC77;" d="M297.176,369.348l-0.457-5.688
			c9.855-10.457,11.953-21.809,11.953-21.809l8.219,6.727c-0.457-14.488,5.832-16.586,14.648-18.223
			c8.801-1.492,13.445-2.555,13.445-2.555l-8.816,7.328c21.809-2.094,24.793-11.953,24.793-11.953
			c1.641,12.406-4.625,18.074-9.254,20.773c-4.648,2.531-11.949,2.094-16.602-1.059c-4.625-3.133-3.566,1.496-3.129,4.043
			c0.457,2.68-0.438,6.27-4.629,8.824c-4.191,2.676-16.582-5.086-16.582-5.086C307.035,359.926,297.176,369.348,297.176,369.348"/>
		<polyline style="fill-rule:evenodd;clip-rule:evenodd;fill:#CCBE00;" points="241.727,403.566 241.727,430.008 244.883,426.871 
			244.281,405.641 		"/>
		<path style="fill-rule:evenodd;clip-rule:evenodd;fill:#CBB500;" d="M245.316,402.965c6.289-5.684,4.629-16,4.629-16
			C248.016,394.746,245.316,402.965,245.316,402.965"/>
		<path style="fill-rule:evenodd;clip-rule:evenodd;fill:#C9AA03;" d="M255.777,453.305c4.629,27.039,5.684-14.484,5.684-14.484
			l-3.734-0.457C258.766,448.227,255.777,453.305,255.777,453.305"/>
		<polyline style="fill-rule:evenodd;clip-rule:evenodd;fill:#CCBE00;" points="207.531,364.121 206.473,358.887 220.977,337.078 
			227.246,342.309 		"/>
		<path style="fill-rule:evenodd;clip-rule:evenodd;fill:#CCBE00;" d="M314.793,402.219l-8.82-3.883
			c3.156-10.312,1.66-18.676,1.66-18.676l2.074-4.191c9.879-5.082,13.016-12.41,13.016-12.41c8.961,7.781,15.684,30.34,15.684,30.34
			c-4.938,6.578-12.699,14.336-12.699,14.336"/>
		<path style="fill-rule:evenodd;clip-rule:evenodd;fill:#C9AA03;" d="M403.086,232.328c-15.086,10.914-24.941,14.508-24.941,14.508
			c4.188,21.352-5.688,47.805-5.688,47.805"/>
		<path style="fill:none;stroke:#CBB500;stroke-width:1.0459;stroke-linecap:square;stroke-miterlimit:2.6131;" d="M406.68,260.426
			c59.16,45.113,67.98,20.168,67.98,20.168"/>
		<path style="fill:none;stroke:#CBB500;stroke-width:1.0459;stroke-linecap:square;stroke-miterlimit:2.6131;" d="M396.824,269.68
			c54.992,42,69.473,17.641,69.473,17.641"/>
		<path style="fill:none;stroke:#CBB500;stroke-width:1.0459;stroke-linecap:square;stroke-miterlimit:2.6131;" d="M397.855,281.633
			c56.484,33.184,58.129,13.008,58.129,13.008"/>
		<path style="fill:none;stroke:#CBB500;stroke-width:1.0459;stroke-linecap:square;stroke-miterlimit:2.6131;" d="M393.688,288.355
			c41.09,28.098,53.473,13.012,53.473,13.012"/>
		<path style="fill:none;stroke:#CBB500;stroke-width:1.0459;stroke-linecap:square;stroke-miterlimit:2.6131;" d="M396.824,302.859
			c43.035,19.277,44.676,2.098,44.676,2.098"/>
		<path style="fill:none;stroke:#CBB500;stroke-width:1.0459;stroke-linecap:square;stroke-miterlimit:2.6131;" d="M388.461,311.68
			c42.582,16.582,44.676,0.582,44.676,0.582"/>
		<path style="fill:none;stroke:#CBB500;stroke-width:1.0459;stroke-linecap:square;stroke-miterlimit:2.6131;" d="M388,323.176
			c27.5,7.18,37.809-4.191,37.809-4.191"/>
		<path style="fill:none;stroke:#CBB500;stroke-width:1.0459;stroke-linecap:square;stroke-miterlimit:2.6131;" d="M384.414,328.262
			c25.398,9.398,30.047-3.59,30.047-3.59"/>
		<path style="fill:none;stroke:#CBB500;stroke-width:1.0459;stroke-linecap:square;stroke-miterlimit:2.6131;" d="M374.699,341.25
			c19.281,2.098,24.656-5.082,24.656-5.082"/>
		<path style="fill:none;stroke:#BCBEC0;stroke-width:1.0459;stroke-linecap:square;stroke-miterlimit:2.6131;" d="M356.336,361.566
			c19.715,2.555,23.902-12.535,23.902-12.535"/>
		<path style="fill:none;stroke:#CBB500;stroke-width:1.0459;stroke-linecap:square;stroke-miterlimit:2.6131;" d="M376.652,332.434
			c23.016,10.621,31.52-1.496,31.52-1.496"/>
		<path style="fill:none;stroke:#CBB500;stroke-width:1.0459;stroke-linecap:square;stroke-miterlimit:2.6131;" d="M363.664,349.031
			c25.398,4.172,30.023-8.215,30.023-8.215"/>
		<path style="fill-rule:evenodd;clip-rule:evenodd;fill:#CBB500;" d="M475.715,282.09c21.957,35.855,63.191,82.633,63.191,82.633
			c-56.777-61.262-64.246-81.738-64.246-81.738"/>
		<path style="fill-rule:evenodd;clip-rule:evenodd;fill:#CBB500;" d="M467.938,287.922c36.746,57.211,62.145,79.785,62.145,79.785
			c-18.816-11.059-63.496-78.75-63.496-78.75"/>
		<path style="fill-rule:evenodd;clip-rule:evenodd;fill:#CCBE00;" d="M348.555,367.707c13.445-2.695,15.109-19.129,15.109-19.129
			c15.082-2.699,12.988-17.188,12.988-17.188c17.637-4.02,11.348-19.129,11.348-19.129c18.68-11.496,4.629-24.34,4.629-24.34
			c10.625-8.363,3.734-18.531,3.734-18.531c10.316,1.035,10.316-10.004,10.316-10.004c9.422,5.062,14.5-2.098,14.5-2.098
			c36.297,28.992,63.793,22.27,63.793,22.27c-25.398,6.266-66.344-28.988-66.344-28.988c-4.621,11.809-16.578,2.094-16.578,2.094
			C400.41,269.68,388,262.953,388,262.953c8.824,16.148-3.133,23.906-3.133,23.906c14.488,13.906-2.094,22.727-2.094,22.727
			c4.195,19.711-10.895,17.785-10.895,17.785c1.641,14.938-11.809,18.672-11.809,18.672c-9.855,37.355-38.988,10.293-38.988,10.293
			C334.07,375.012,348.555,367.707,348.555,367.707"/>
		<path style="fill-rule:evenodd;clip-rule:evenodd;fill:#CBB500;" d="M486.008,281.633c-6.121,0.457-10.293,0.457-10.293,0.457
			c-2.695,5.23-8.816,5.977-8.816,5.977c-2.695,6.266-8.672,7.012-8.672,7.012c-3.594,7.781-7.906,7.035-7.906,7.035
			c-3.16,4.172-8.387,5.23-8.387,5.23c-2.074,5.664-7.762,6.723-7.762,6.723c-10.91,13.305-17.637,11.641-17.637,11.641
			c-1.785,4.938-6.27,5.684-6.27,5.684c-4.629,6.27-9.855,6.727-9.855,6.727c-2.242,3.734-6.121,4.773-6.121,4.773
			c-4.797,8.215-10.457,7.18-10.457,7.18c-5.688,9.855-18.676,11.496-18.676,11.496c14.031-8.363,15.082-12.535,15.082-12.535
			c11.355-4.645,13.449-8.215,13.449-8.215c5.23-2.098,4.168-4.648,4.168-4.648c7.781-2.078,10.316-5.23,10.316-5.23
			c4.797-3.137,6.289-6.266,6.289-6.266c7.762-2.535,11.348-5.688,11.348-5.688c5.836-2.531,7.328-6.723,7.328-6.723
			c6.723-3.133,8.363-7.305,8.363-7.305c5.66-2.098,5.66-3.59,5.66-3.59c9.883-3.59,8.824-8.363,8.824-8.363
			c7.781-2.094,10.312-5.684,10.312-5.684c7.324-3.137,8.363-6.727,8.363-6.727c6.289,0,9.566-2.094,9.566-2.094"/>
		<path style="fill-rule:evenodd;clip-rule:evenodd;fill:#CBB500;" d="M458.227,295.078c32.266,56.344,59.016,73.523,59.016,73.523
			c-40.027-38.246-57.668-74.27-57.668-74.27"/>
		<path style="fill-rule:evenodd;clip-rule:evenodd;fill:#CBB500;" d="M450.754,301.055c33.012,50.367,58.871,70.824,58.871,70.824
			c-30.34-21.953-60.223-70.078-60.223-70.078"/>
		<path style="fill-rule:evenodd;clip-rule:evenodd;fill:#CBB500;" d="M441.934,307.344c38.098,52.145,53.641,62.004,53.641,62.004
			c-25.832-18.242-55.133-61.566-55.133-61.566"/>
		<path style="fill-rule:evenodd;clip-rule:evenodd;fill:#CBB500;" d="M434.172,314.066c28.242,38.391,51.402,55.719,51.402,55.719
			c-40.047-32.707-52.746-55.285-52.746-55.285"/>
		<path style="fill-rule:evenodd;clip-rule:evenodd;fill:#CBB500;" d="M427.449,320.043c27.184,36.75,46.609,50.051,46.609,50.051
			c-34.199-26.453-48.25-49.012-48.25-49.012"/>
		<path style="fill-rule:evenodd;clip-rule:evenodd;fill:#CBB500;" d="M418.629,325.273c20.48,30.773,42.73,45.113,42.73,45.113
			c-33.449-23.16-44.367-44.68-44.367-44.68"/>
		<path style="fill-rule:evenodd;clip-rule:evenodd;fill:#CBB500;" d="M410.266,331.391c22.562,29.887,37.957,38.703,37.957,38.703
			c-24.508-17.324-39.449-37.805-39.449-37.805"/>
		<path style="fill-rule:evenodd;clip-rule:evenodd;fill:#CBB500;" d="M401.762,337.078c21.812,24.199,31.668,31.961,31.668,31.961
			c-16.895-12.992-33.02-30.922-33.02-30.922"/>
		<path style="fill-rule:evenodd;clip-rule:evenodd;fill:#CBB500;" d="M393.688,342.891c12.242,14.195,26.293,24.816,26.293,24.816
			c-20.773-14.793-27.043-24.066-27.043-24.066"/>
		<path style="fill-rule:evenodd;clip-rule:evenodd;fill:#CBB500;" d="M384.414,349.324c11.367,10.457,20.172,15.832,20.172,15.832
			c-10.297-5.23-22.852-15.543-21.504-15.832C383.832,349.18,384.414,349.324,384.414,349.324"/>
		<path style="fill-rule:evenodd;clip-rule:evenodd;fill:#7D7FBD;" d="M343.324,426.414c-23.738,24.648-18.676,40.48-18.676,40.48
			c1.059,21.23,23.473,20.18,23.473,20.18c27.492-4.176,18.074-28.535,18.074-28.535
			C359.016,439.422,343.324,426.414,343.324,426.414"/>
		<path style="fill-rule:evenodd;clip-rule:evenodd;fill:#AA9900;" d="M314.355,385.93c7.762,10.168,14.031,7.18,14.031,7.18
			c3.59-5.832-5.23-13.906-5.23-13.906c6.887,9.422,4.48,12.555,4.48,12.555C323.902,394.438,314.355,385.93,314.355,385.93"/>
		<path style="fill-rule:evenodd;clip-rule:evenodd;fill:#AA9900;" d="M322.723,379.203c11.203,14.652,20.164,10.461,20.164,10.461
			c6.125-7.473-7.469-19.879-7.469-19.879c9.715,13.445,6.414,17.93,6.414,17.93C336.457,391.617,322.723,379.203,322.723,379.203"
			/>
		<path style="fill-rule:evenodd;clip-rule:evenodd;fill:#AA9900;" d="M335.566,369.348c7.758,10.145,14.047,7.16,14.047,7.16
			c3.594-5.809-3.133-10.461-3.133-10.461c5.664,7.328,2.387,9.133,2.387,9.133C345.133,378,335.566,369.348,335.566,369.348"/>
		<path style="fill-rule:evenodd;clip-rule:evenodd;fill:#AA9900;" d="M348.555,366.504c7.93,10.168,14.195,7.324,14.195,7.324
			c3.445-5.973-2.531-9.418-2.531-9.418c4.938,7.469,1.031,8.363,1.031,8.363C357.523,375.617,348.555,366.504,348.555,366.504"/>
		<path style="fill-rule:evenodd;clip-rule:evenodd;fill:#AA9900;" d="M350.047,378.312c11.203,14.48,20.168,10.312,20.168,10.312
			c5.98-7.469-7.613-19.879-7.613-19.879c9.855,13.445,6.434,17.93,6.434,17.93C363.805,390.555,350.047,378.312,350.047,378.312"/>
		<path style="fill-rule:evenodd;clip-rule:evenodd;fill:#AA9900;" d="M345.277,405.953c8.07,12.094,15.23,9.254,15.23,9.254
			c5.23-5.52-4.918-16.125-4.918-16.125c7.012,11.043,4.168,14.488,4.168,14.488C355.441,416.41,345.277,405.953,345.277,405.953"/>
		<path style="fill-rule:evenodd;clip-rule:evenodd;fill:#AA9900;" d="M354.988,398.629c8.074,12.098,15.395,9.254,15.395,9.254
			c5.23-5.52-4.938-16.125-4.938-16.125c7.012,11.207,4.188,14.484,4.188,14.484C365.156,409.086,354.988,398.629,354.988,398.629"
			/>
		<path style="fill-rule:evenodd;clip-rule:evenodd;fill:#AA9900;" d="M363.664,388.457c8.051,11.953,15.375,9.133,15.375,9.133
			c5.086-5.539-4.918-16-4.918-16c7.012,11.062,4.172,14.508,4.172,14.508C373.809,398.773,363.664,388.457,363.664,388.457"/>
		<path style="fill-rule:evenodd;clip-rule:evenodd;fill:#AA9900;" d="M331.227,398.629c9.566,12.406,17.184,8.816,17.184,8.816
			c5.082-6.434-6.414-16.891-6.414-16.891c8.363,11.352,5.379,15.254,5.379,15.254C342.887,409.086,331.227,398.629,331.227,398.629
			"/>
		<path style="fill-rule:evenodd;clip-rule:evenodd;fill:#C9AA03;" d="M343.324,426.414c-7.758-10.461-10.602-11.207-10.602-11.207
			c-45.113,62.754,3.445,69.785,3.445,69.785C305.539,464.82,343.324,426.414,343.324,426.414"/>
		<path style="fill-rule:evenodd;clip-rule:evenodd;fill:#AA9900;" d="M350.359,419.398c8.074,12.102,15.379,9.258,15.379,9.258
			c5.227-5.523-4.918-16.125-4.918-16.125c7.012,11.203,4.168,14.484,4.168,14.484C360.508,429.859,350.359,419.398,350.359,419.398
			"/>
		<path style="fill-rule:evenodd;clip-rule:evenodd;fill:#AA9900;" d="M360.82,411.617c8.07,12.117,15.23,9.273,15.23,9.273
			c5.23-5.539-4.918-16.141-4.918-16.141c7.012,11.059,4.168,14.504,4.168,14.504C370.965,422.078,360.82,411.617,360.82,411.617"/>
		<path style="fill-rule:evenodd;clip-rule:evenodd;fill:#AA9900;" d="M370.383,402.363c8.055,12.098,15.375,9.254,15.375,9.254
			c5.23-5.52-4.918-16.121-4.918-16.121c7.02,11.203,4.176,14.484,4.176,14.484C380.68,412.824,370.383,402.363,370.383,402.363"/>
		<path style="fill-rule:evenodd;clip-rule:evenodd;fill:#AA9900;" d="M355.734,431.039c6.867,12.863,14.34,10.77,14.34,10.77
			c5.688-4.938-3.137-16.434-3.137-16.434c5.832,11.805,2.535,14.797,2.535,14.797C364.844,442.559,355.734,431.039,355.734,431.039
			"/>
		<path style="fill-rule:evenodd;clip-rule:evenodd;fill:#AA9900;" d="M367.539,423.879c6.723,12.848,14.195,10.75,14.195,10.75
			c5.664-4.918-3.129-16.434-3.129-16.434c5.809,11.812,2.527,14.797,2.527,14.797C376.504,435.379,367.539,423.879,367.539,423.879
			"/>
		<path style="fill-rule:evenodd;clip-rule:evenodd;fill:#AA9900;" d="M377.543,416.27c6.723,12.84,14.195,10.746,14.195,10.746
			c5.828-4.938-3.137-16.582-3.137-16.582c5.832,11.809,2.535,14.941,2.535,14.941C386.508,427.617,377.543,416.27,377.543,416.27"
			/>
		<path style="fill-rule:evenodd;clip-rule:evenodd;fill:#AA9900;" d="M364.988,441.207c7.93,16.582,17.492,14.34,17.492,14.34
			c7.473-6.121-3.293-21.062-3.293-21.062c6.887,15.086,2.695,18.82,2.695,18.82C375.762,456.008,364.988,441.207,364.988,441.207"
			/>
		<path style="fill-rule:evenodd;clip-rule:evenodd;fill:#AA9900;" d="M378.891,433.883c8.078,16.578,17.641,14.344,17.641,14.344
			c7.473-5.98-3.301-21.066-3.301-21.066c6.867,15.25,2.551,18.824,2.551,18.824C389.812,448.828,378.891,433.883,378.891,433.883"
			/>
		<path style="fill-rule:evenodd;clip-rule:evenodd;fill:#AA9900;" d="M369.633,456.438c2.395,11.668,8.66,11.668,8.66,11.668
			c5.539-2.703,1.203-13.598,1.203-13.598c1.926,10.461-1.203,12.098-1.203,12.098C374.121,467.355,369.633,456.438,369.633,456.438
			"/>
		<path style="fill-rule:evenodd;clip-rule:evenodd;fill:#AA9900;" d="M379.039,454.195c4.336,11.066,10.453,10.023,10.453,10.023
			c5.09-3.441-1.031-13.59-1.031-13.59c3.586,10.004,0.742,12.242,0.742,12.242C385.328,464.371,379.039,454.195,379.039,454.195"/>
		<path style="fill-rule:evenodd;clip-rule:evenodd;fill:#AA9900;" d="M388.148,449.277c3.445,11.207,9.707,10.754,9.707,10.754
			c5.23-3.133-0.141-13.598-0.141-13.598c2.984,10.176,0,12.105,0,12.105C393.539,459.742,388.148,449.277,388.148,449.277"/>
		<path style="fill-rule:evenodd;clip-rule:evenodd;fill:#AA9900;" d="M370.215,467.812c0.75,11.781,7.039,12.699,7.039,12.699
			c5.828-1.809,2.984-13.297,2.984-13.297c0.441,10.598-2.844,11.805-2.844,11.805C373.059,479.305,370.215,467.812,370.215,467.812
			"/>
		<path style="fill-rule:evenodd;clip-rule:evenodd;fill:#AA9900;" d="M380.531,466.605c0.891,11.664,7.18,12.699,7.18,12.699
			c5.828-1.785,2.992-13.301,2.992-13.301c0.434,10.605-2.992,11.809-2.992,11.809C383.523,477.961,380.531,466.605,380.531,466.605
			"/>
		<path style="fill-rule:evenodd;clip-rule:evenodd;fill:#AA9900;" d="M390.555,465.262c0.75,11.809,7.012,12.699,7.012,12.699
			c5.836-1.785,2.992-13.141,2.992-13.141c0.453,10.605-2.844,11.789-2.844,11.789C393.379,476.777,390.555,465.262,390.555,465.262
			"/>
		<path style="fill-rule:evenodd;clip-rule:evenodd;fill:#AA9900;" d="M367.832,476.469l-0.145,12.551
			c0,8.07,5.082,1.949,5.082,1.949l6.578-12.117l-7.633,10.625c-1.5,3.137-2.391-0.602-2.391-0.602"/>
		<path style="fill-rule:evenodd;clip-rule:evenodd;fill:#AA9900;" d="M378.145,478.703l1.953,12.41
			c1.492,7.91,5.379,0.898,5.379,0.898l4.336-12.992l-5.547,11.781c-0.891,3.445-2.383-0.141-2.383-0.141"/>
		<path style="fill-rule:evenodd;clip-rule:evenodd;fill:#AA9900;" d="M389.812,478.852l1.633,12.41
			c1.352,7.922,5.379,1.031,5.379,1.031l4.625-12.988l-5.828,11.664c-1.039,3.426-2.391-0.168-2.391-0.168"/>
		<path style="fill-rule:evenodd;clip-rule:evenodd;fill:#CBB500;" d="M368.891,369.348c32.559,43.762,33.621,92.777,33.621,92.777
			c0-63.207-33.621-96.512-33.621-96.512"/>
		<path style="fill-rule:evenodd;clip-rule:evenodd;fill:#928900;" d="M354.238,437.762c-23.613-27.184-44.074-37.352-44.074-37.352
			C342.578,404.605,354.238,437.762,354.238,437.762"/>
		<path style="fill-rule:evenodd;clip-rule:evenodd;fill:#CBB500;" d="M479.887,281.633c19.738,31.086,35.715,47.664,35.715,47.664
			c-19.137-26.438-33.16-48.246-33.16-48.246"/>
		<path style="fill-rule:evenodd;clip-rule:evenodd;fill:#CBB500;" d="M471.074,286.281c8.211,18.363,36.016,49.887,36.016,49.887
			c-21.082-29.574-34.82-50.637-34.82-50.637"/>
		<path style="fill-rule:evenodd;clip-rule:evenodd;fill:#CBB500;" d="M464.516,291.512c16.121,28.969,37.035,53.477,37.035,53.477
			c-15.543-12.246-39.137-52.73-39.137-52.73"/>
		<path style="fill-rule:evenodd;clip-rule:evenodd;fill:#CBB500;" d="M454.633,299.73c18.988,30.914,36.172,48.102,36.172,48.102
			c-26-33.766-34.512-50.055-34.512-50.055"/>
		<path style="fill-rule:evenodd;clip-rule:evenodd;fill:#CBB500;" d="M447.477,303.898c20.461,31.684,34.652,46.461,34.652,46.461
			c-23.301-22.988-36.293-45.715-36.293-45.715"/>
		<path style="fill-rule:evenodd;clip-rule:evenodd;fill:#CBB500;" d="M438.797,311.227c3.742,9.562,35.574,42.723,35.574,42.723
			c-23.906-19.715-37.668-41.977-37.668-41.977"/>
		<path style="fill-rule:evenodd;clip-rule:evenodd;fill:#CBB500;" d="M430.727,317.199c18.246,23.617,32.289,37.062,32.289,37.062
			c-20.332-16.289-33.18-36.023-33.18-36.023"/>
		<path style="fill-rule:evenodd;clip-rule:evenodd;fill:#FFFFFF;" d="M321.371,411.617c-18.965,32.121-17.93,57.23-13.445,68.438
			c4.336,11.207,2.84,16.293-3.445,13.738c-6.266-2.531-6.727-6.418-6.727-6.418c-7.613-33.469,6.727-53.492,6.727-53.492
			C310.766,422.242,321.371,411.617,321.371,411.617"/>
		<path style="fill:none;stroke:#928900;stroke-width:1.0459;stroke-miterlimit:2.6131;" d="M368.289,491.715
			c-16.582,23.305-38.41,28.531-38.41,28.531"/>
		<path style="fill:none;stroke:#928900;stroke-width:1.0459;stroke-miterlimit:2.6131;" d="M381.734,494.855
			c-9.277,18.215-28.527,28.07-28.527,28.07"/>
		<path style="fill:none;stroke:#928900;stroke-width:1.0459;stroke-miterlimit:2.6131;" d="M355.281,485.574
			c-9.859,19.137-41.527,26.891-41.527,26.891"/>
		<path style="fill:none;stroke:#928900;stroke-width:1.0459;stroke-miterlimit:2.6131;" d="M327.348,476.176
			c-14.051,9.398-30.172,8.363-30.172,8.363"/>
		<path style="fill:none;stroke:#928900;stroke-width:1.0459;stroke-miterlimit:2.6131;" d="M360.961,482.148
			c8.074,26.75,18.676,33.16,18.676,33.16"/>
		<path style="fill:none;stroke:#928900;stroke-width:1.0459;stroke-miterlimit:2.6131;" d="M375.613,486.484
			c7.16,16.434,14.199,19.258,14.199,19.258"/>
		<path style="fill:none;stroke:#928900;stroke-width:1.0459;stroke-miterlimit:2.6131;" d="M350.215,486.484
			c2.531,18.969,13.879,35.551,13.879,35.551"/>
		<path style="fill:none;stroke:#928900;stroke-width:1.0459;stroke-miterlimit:2.6131;" d="M337.66,485.574
			c1.348,19.426,10.895,37.812,10.895,37.812"/>
		<path style="fill:none;stroke:#928900;stroke-width:1.0459;stroke-miterlimit:2.6131;" d="M328.094,477.52
			c-5.688,24.801,3.133,42.414,3.133,42.414"/>
		<path style="fill:none;stroke:#928900;stroke-width:1.0459;stroke-miterlimit:2.6131;" d="M339.445,486.031
			c-14.195,10.918-35.711,14.484-35.711,14.484"/>
		<path style="fill:none;stroke:#928900;stroke-width:1.0459;stroke-miterlimit:2.6131;" d="M324.648,465.262
			c-17.18,7.613-28.965,4.625-28.965,4.625c12.387-26.148,33.906-26.438,33.906-26.438"/>
		<path style="fill:none;stroke:#928900;stroke-width:1.0459;stroke-miterlimit:2.6131;" d="M324.504,469.738
			c0,0-14.797,6.438-14.051,39.16"/>
		<path style="fill:none;stroke:#928900;stroke-width:1.0459;stroke-miterlimit:2.6131;" d="M297.176,454.656
			c9.398,4.625,28.82-0.602,28.82-0.602"/>
		<path style="fill:none;stroke:#928900;stroke-width:1.0459;stroke-miterlimit:2.6131;" d="M301.945,440.172
			c8.508,6.723,26.605,6.41,26.605,6.41"/>
		<path style="fill:none;stroke:#928900;stroke-width:1.0459;stroke-miterlimit:2.6131;" d="M309.875,425.812
			c9.711,12.262,24.195,12.551,24.195,12.551"/>
		<path style="fill:none;stroke:#928900;stroke-width:1.0459;stroke-miterlimit:2.6131;" d="M320.77,412.676
			c5.227,13.738,19.277,17.613,19.277,17.613"/>
		<path style="fill:none;stroke:#928900;stroke-width:1.0459;stroke-miterlimit:2.6131;" d="M298.066,488.418
			c10.75-28.387,27.641-32.27,27.641-32.27"/>
		<path style="fill:none;stroke:#928900;stroke-width:1.0459;stroke-miterlimit:2.6131;" d="M299.852,443.738
			c23.617-16.867,35.254-6.719,35.254-6.719"/>
		<path style="fill:none;stroke:#928900;stroke-width:1.0459;stroke-miterlimit:2.6131;" d="M307.633,428.656
			c25.09-9.258,34.656-3.281,34.656-3.281"/>
		<path style="fill:none;stroke:#928900;stroke-width:1.0459;stroke-miterlimit:2.6131;" d="M316.434,417.012
			c10.914-3.902,14.191-2.84,14.191-2.84"/>
		<path style="fill-rule:evenodd;clip-rule:evenodd;fill:#FFEF96;" d="M392.195,369.348l-0.602,20.773
			c8.363-9.133,16.145-7.637,16.145-7.637C401.449,372.629,392.195,369.348,392.195,369.348"/>
		<path style="fill-rule:evenodd;clip-rule:evenodd;fill:#FFEF96;" d="M393.379,390.266c17.488-6.125,29.133,16.434,29.133,16.434
			c-9.543-2.094-18.219,3.879-18.219,3.879c6.574-7.758,11.809-7.613,11.809-7.613C409.523,392.941,393.379,390.266,393.379,390.266
			"/>
		<path style="fill-rule:evenodd;clip-rule:evenodd;fill:#FFFFFF;" d="M334.816,401.473c8.07,8.359,12.41,4.48,12.41,4.48
			C341.086,404.605,334.816,401.473,334.816,401.473"/>
		<path style="fill-rule:evenodd;clip-rule:evenodd;fill:#FFFFFF;" d="M317.781,388.457c6.434,6.727,10.023,3.594,10.023,3.594
			C322.723,391.012,317.781,388.457,317.781,388.457"/>
		<path style="fill-rule:evenodd;clip-rule:evenodd;fill:#FFFFFF;" d="M328.84,383.398c8.074,8.219,12.555,4.316,12.555,4.316
			C335.105,386.383,328.84,383.398,328.84,383.398"/>
		<path style="fill-rule:evenodd;clip-rule:evenodd;fill:#FFFFFF;" d="M356.336,382.336c8.07,8.219,12.555,4.34,12.555,4.34
			C362.602,385.328,356.336,382.336,356.336,382.336"/>
		<path style="fill-rule:evenodd;clip-rule:evenodd;fill:#FFFFFF;" d="M339.297,371.441c6.434,6.559,10.004,3.426,10.004,3.426
			C344.238,373.828,339.297,371.441,339.297,371.441"/>
		<path style="fill-rule:evenodd;clip-rule:evenodd;fill:#FFFFFF;" d="M352.598,369.348c6.418,6.578,9.855,3.426,9.855,3.426
			C357.523,371.734,352.598,369.348,352.598,369.348"/>
		<path style="fill-rule:evenodd;clip-rule:evenodd;fill:#FFFFFF;" d="M348.555,408.793c8.07,8.219,12.406,4.316,12.406,4.316
			C354.84,411.781,348.555,408.793,348.555,408.793"/>
		<path style="fill-rule:evenodd;clip-rule:evenodd;fill:#FFFFFF;" d="M358.434,401.473c8.047,8.359,12.391,4.48,12.391,4.48
			C364.695,404.605,358.434,401.473,358.434,401.473"/>
		<path style="fill-rule:evenodd;clip-rule:evenodd;fill:#FFFFFF;" d="M363.953,414.172c7.926,8.359,12.41,4.48,12.41,4.48
			C370.074,417.305,363.953,414.172,363.953,414.172"/>
		<path style="fill-rule:evenodd;clip-rule:evenodd;fill:#FFFFFF;" d="M353.207,421.93c8.043,8.359,12.531,4.484,12.531,4.484
			C359.469,425.066,353.207,421.93,353.207,421.93"/>
		<path style="fill-rule:evenodd;clip-rule:evenodd;fill:#FFFFFF;" d="M358.266,433.734c6.891,9.254,11.809,5.98,11.809,5.98
			C364.094,437.621,358.266,433.734,358.266,433.734"/>
		<path style="fill-rule:evenodd;clip-rule:evenodd;fill:#FFFFFF;" d="M370.074,426.414c6.867,9.422,11.66,6.121,11.66,6.121
			C375.762,430.461,370.074,426.414,370.074,426.414"/>
		<path style="fill-rule:evenodd;clip-rule:evenodd;fill:#FFFFFF;" d="M383.832,439.715c6.871,9.254,11.641,5.977,11.641,5.977
			C389.492,443.598,383.832,439.715,383.832,439.715"/>
		<path style="fill-rule:evenodd;clip-rule:evenodd;fill:#FFFFFF;" d="M369.934,446.727c7.172,9.711,12.398,6.289,12.398,6.289
			C375.902,450.773,369.934,446.727,369.934,446.727"/>
		<path style="fill-rule:evenodd;clip-rule:evenodd;fill:#CBB500;" d="M417.887,260.426c17.637,16.289,44.816,21.953,44.816,21.953
			c-24.047-2.238-46.602-21.496-46.602-21.496"/>
		<path style="fill-rule:evenodd;clip-rule:evenodd;fill:#CBB500;" d="M404.895,265.508c16.578,15.832,42.727,23.449,42.727,23.449
			c-22.266-4.773-44.367-22.098-44.367-22.098"/>
		<path style="fill-rule:evenodd;clip-rule:evenodd;fill:#CBB500;" d="M398.316,275.656c13.738,11.371,36.895,18.984,36.895,18.984
			c-9.113-0.309-37.043-17.18-37.043-17.18"/>
		<path style="fill-rule:evenodd;clip-rule:evenodd;fill:#CBB500;" d="M396.363,283.73c21.523,13.445,32.125,16.578,32.125,16.578
			c-22.852-8.508-33.016-15.832-33.016-15.832"/>
		<path style="fill-rule:evenodd;clip-rule:evenodd;fill:#CBB500;" d="M397.113,296.137c7.473,7.617,28.242,11.207,28.242,11.207
			c-12.988-0.605-28.242-9.566-28.242-9.566"/>
		<path style="fill-rule:evenodd;clip-rule:evenodd;fill:#CBB500;" d="M394.289,306.285c9.547,6.289,25.691,8.215,25.691,8.215
			c-17.789-1.492-26.293-7.762-26.293-7.762"/>
		<path style="fill-rule:evenodd;clip-rule:evenodd;fill:#CBB500;" d="M388.461,316.164c4.77,4.172,21.805,5.227,21.805,5.227
			c-8.504,1.184-21.516-3.734-21.516-3.734"/>
		<polyline style="fill-rule:evenodd;clip-rule:evenodd;fill:#CBB500;" points="338.262,205.145 325.25,219.629 339.758,206.184 		
			"/>
		<polyline style="fill-rule:evenodd;clip-rule:evenodd;fill:#CBB500;" points="317.18,215.457 318.672,200.66 316.891,200.953 		
			"/>
		<polyline style="fill-rule:evenodd;clip-rule:evenodd;fill:#CBB500;" points="329.441,223.074 346.77,211.578 348.121,213.215 		
			"/>
		<polyline style="fill-rule:evenodd;clip-rule:evenodd;fill:#CBB500;" points="335.105,226.664 356.336,222.473 359.016,224.566 		
			"/>
		<polyline style="fill-rule:evenodd;clip-rule:evenodd;fill:#CBB500;" points="340.793,232.93 363.664,233.387 364.094,235.918 		
			"/>
		<polyline style="fill-rule:evenodd;clip-rule:evenodd;fill:#CBB500;" points="347.516,240.109 367.23,245.34 366.195,247.434 		
			"/>
		<polyline style="fill-rule:evenodd;clip-rule:evenodd;fill:#CBB500;" points="352.145,249.508 365.156,255.195 365.156,257.727 		
			"/>
		<polyline style="fill-rule:evenodd;clip-rule:evenodd;fill:#CBB500;" points="355.883,262.379 364.094,266.109 364.094,268.641 
			355.883,261.918 		"/>
		<polyline style="fill-rule:evenodd;clip-rule:evenodd;fill:#CBB500;" points="356.934,273.27 364.695,277.004 365.738,280.141 		
			"/>
		<polyline style="fill-rule:evenodd;clip-rule:evenodd;fill:#CBB500;" points="356.336,282.09 366.195,289.414 366.195,291.945 		
			"/>
		<polyline style="fill-rule:evenodd;clip-rule:evenodd;fill:#CBB500;" points="354.238,290.016 365.156,299.27 364.695,301.801 		
			"/>
		<polyline style="fill-rule:evenodd;clip-rule:evenodd;fill:#CBB500;" points="350.652,298.23 362,309.586 360.07,311.227 		"/>
		
			<line style="fill:none;stroke:#FFFFFF;stroke-width:4.1834;stroke-miterlimit:2.6131;" x1="325.707" y1="466.895" x2="368.289" y2="466.895"/>
		
			<line style="fill:none;stroke:#FFFFFF;stroke-width:4.1834;stroke-miterlimit:2.6131;" x1="359.18" y1="446.145" x2="359.18" y2="481.695"/>
		<path style="fill-rule:evenodd;clip-rule:evenodd;fill:#CBB500;" d="M375.613,356.793c13.449,6.266,24.797,11.496,24.797,11.496
			c-17.637-6.266-26.891-10.457-26.891-10.457"/>
		<path style="fill-rule:evenodd;clip-rule:evenodd;fill:#FFFFFF;" d="M379.637,227.699c-17.637,16-7.758,68.438-10.746,76.801
			c-10.164,27.039-47.809,22.266-47.809,22.266c-5.23,0.605-10.316,12.387-10.316,12.387c2.098-14.48,13.883-15.977,13.883-15.977
			c18.238,2.098,38.414-12.555,40.047-21.809c1.5-9.422-2.695-36.316,0.461-50.797C368.289,235.918,379.637,227.699,379.637,227.699
			"/>
		<path style="fill-rule:evenodd;clip-rule:evenodd;fill:#CBB500;" d="M337.66,233.387c14.484,39.445,8.82,74.703,8.82,74.703
			C365.738,253.098,337.66,233.387,337.66,233.387"/>
		<path style="fill-rule:evenodd;clip-rule:evenodd;fill:#363639;" d="M190.184,212.012c-1.496-1.18-2.531-1.93-3.734-2.383
			c-0.895-0.293-1.641-0.148-2.391,0c-0.746,0.453-1.492,0.891-2.383,2.094l-1.035-0.602l7.758-10.004l1.039,0.582
			c-0.289,0.75-0.75,1.203-1.039,1.949c-0.148,0.457-0.457,1.043-0.602,1.496c0.145,0.746,0.309,1.203,0.746,1.949
			c0.605,0.746,1.203,1.496,2.242,2.242l13.156,10.293c1.496,1.203,2.844,2.406,3.734,3.902c1.035,1.492,1.637,2.82,1.785,4.48
			c0.457,2.988-0.895,6.41-3.738,10.293c-2.984,3.734-6.266,5.977-9.562,5.977c-1.641,0.164-3.133,0-4.484-0.582
			c-1.492-0.602-2.824-1.348-4.023-2.242l-14.195-11.059c-1.039-0.75-1.785-1.203-2.531-1.496c-0.457-0.145-1.059-0.309-1.492-0.145
			c-0.461,0.289-0.914,0.438-1.352,0.891c-0.457,0.441-1.059,0.895-1.492,1.352l-1.059-0.602l9.273-11.805l1.039,0.598
			c-0.145,0.148-0.293,0.602-0.891,1.348c-0.293,0.75-0.602,1.328-0.75,1.789c0,0.457,0,0.891,0.293,1.492
			c0.309,0.457,0.746,1.035,1.805,1.785l14.941,11.805c0.891,0.602,1.926,1.203,2.988,1.809c1.18,0.582,2.238,0.746,3.277,0.746
			c2.551-0.312,5.086-1.492,7.035-4.047c2.242-2.844,2.988-5.973,2.242-8.816c-0.457-1.789-2.098-3.883-4.793-5.98"/>
		<path style="fill-rule:evenodd;clip-rule:evenodd;fill:#363639;" d="M214.836,213.504l-15.234-17.469
			c-1.637-0.312-2.531-0.457-3.441-0.312c-0.582,0.168-1.496,0.746-2.387,1.492l-0.895-0.891l7.016-6.266l32.578,5.977
			l-11.953-13.594c-1.949-2.242-3.59-3.297-4.938-3.441c-0.891,0.145-1.93,0.746-3.133,1.785l-0.895-0.895l9.566-8.363l0.891,0.891
			c-0.891,0.895-1.492,1.641-1.781,2.391c-0.457,0.598-0.312,1.348-0.312,2.238c0.457,0.914,1.059,1.953,2.242,3.301l19.133,21.664
			l-0.602,0.602l-37.352-6.434v0.145l13.445,15.398c1.035,1.184,1.785,2.098,2.531,2.531c0.746,0.746,1.348,0.895,1.953,1.203
			c0.602,0,1.203-0.145,1.949-0.309c0.582-0.293,1.184-0.75,2.074-1.496l0.914,0.914l-9.715,8.508l-0.91-0.895
			c0.91-0.891,1.492-1.641,1.66-2.094c0.289-0.293,0.578-0.746,0.75-1.348c-0.172-0.438-0.312-1.352-0.918-2.098
			C216.641,215.75,216.039,214.711,214.836,213.504"/>
		<path style="fill-rule:evenodd;clip-rule:evenodd;fill:#363639;" d="M233.074,171.672c-0.891-1.348-1.637-2.238-2.238-2.527
			c-0.746-0.316-1.207-0.461-1.809-0.316c-0.582,0.316-1.637,0.914-3.277,1.664l-0.602-1.059l13.301-8.824l0.602,1.062
			c-1.055,0.891-1.805,1.492-2.242,1.93c-0.309,0.602-0.746,1.199-0.746,1.805c0.145,0.895,0.438,1.785,1.184,2.988l13.758,20.77
			c0.602,1.039,1.492,1.496,2.238,1.785c1.039,0.293,2.391-0.289,4.172-1.492l0.746,0.895l-13.277,8.816l-0.746-0.891
			c1.324-0.891,2.242-1.641,2.676-2.387c0.312-0.457,0.602-1.203,0.457-1.805c0-0.605-0.312-1.496-0.891-2.387"/>
		<path style="fill-rule:evenodd;clip-rule:evenodd;fill:#363639;" d="M246.062,166.59l-3.875-8.508l27.035-13.59l4.48,8.359
			l-1.035,0.457c-0.602-0.457-1.203-1.352-1.949-1.953c-0.434-0.598-0.895-1.199-1.641-1.492c-0.746-0.605-1.637-0.605-2.699-0.453
			c-0.891,0-2.238,0.453-3.566,1.055l-3.902,1.93l12.555,24.961c0.457,1.043,1.203,1.645,1.641,2.098
			c0.598,0.293,1.344,0.582,2.094,0.438c0.75-0.438,1.641-0.746,2.844-1.348l0.602,1.055l-14.047,7.16l-0.602-1.035
			c1.492-0.895,2.551-1.641,3.133-2.387c0.312-0.746,0.312-1.949-0.438-3.445l-12.555-25.09l-3.133,1.641
			c-1.352,0.75-2.387,1.496-3.133,2.098c-0.746,0.746-1.203,1.637-1.203,2.676c-0.457,1.348,0,2.84,0.457,4.793"/>
		<path style="fill-rule:evenodd;clip-rule:evenodd;fill:#363639;" d="M280.738,146.129c-0.453-1.496-1.055-2.535-1.949-2.844
			c-0.746-0.602-2.094-0.746-4.023-0.145l-0.316-0.891l27.207-8.531l2.387,7.184l-1.199,0.289c-0.605-1.188-1.188-2.242-1.789-2.824
			c-0.746-0.457-1.641-0.746-2.551-1.059c-1.184,0.145-2.531,0.312-4.316,0.895l-7.781,2.551c-0.602,0.148-1.039,0.438-1.039,0.602
			c-0.145,0.293-0.145,0.895-0.145,1.328l0.145,0.164c0,0,0,0,0.145,0.148l3.445,11.059l7.305-2.406
			c1.66-0.438,2.84-1.039,3.445-1.328c0.746-0.602,1.203-1.203,1.203-2.094c0.145-0.461,0.145-1.809,0-3.445l1.035-0.289
			l3.883,12.238l-1.039,0.312c-0.746-1.059-1.199-1.949-1.492-2.242c-0.312-0.602-0.602-0.91-1.059-1.055
			c-0.438-0.293-1.184-0.293-1.785-0.293c-0.891,0.148-2.098,0.293-3.445,0.746l-7.305,2.242l4.172,13.133
			c0.145,0.461,0.457,0.605,0.602,0.918c0.293,0,0.895,0.145,1.352,0.145c0.434-0.145,1.492-0.457,2.84-0.746
			c2.531-0.895,4.629-1.496,6.414-2.242c1.805-0.75,3.133-1.805,4.047-3.137c1.035-1.348,1.637-3.441,1.781-5.973l1.496-0.457
			l0.602,9.418l-27.785,8.656l-0.457-0.895c1.203-0.289,2.094-0.746,2.699-1.203c0.434-0.434,0.891-1.035,1.035-1.641
			c0.148-0.746,0-1.637-0.453-2.844"/>
		<path style="fill-rule:evenodd;clip-rule:evenodd;fill:#363639;" d="M320.625,133.574l3.734,27.785
			c0.145,0.75,0.289,1.348,0.746,1.348c0.602,0.312,1.348,0.312,2.531,0.148c3.152-0.438,5.832-1.039,7.93-2.074
			c2.094-1.062,3.73-2.555,5.082-4.652c0.891-1.328,1.641-2.984,1.785-4.773c0.453-1.781,0.453-4.023,0.145-5.973
			c-0.289-2.242-0.746-4.027-1.637-5.98c-0.895-1.781-1.934-3.441-3.281-4.48c-2.094-1.637-4.336-2.699-6.871-3.133
			c-2.402-0.457-4.938-0.457-7.926,0c-0.891,0.145-1.492,0.289-1.781,0.434C320.77,132.539,320.625,132.973,320.625,133.574
			 M315.395,136.414c-0.145-1.203-0.293-2.094-0.602-2.695c-0.293-0.578-0.602-0.891-0.895-1.035
			c-0.453-0.289-1.035-0.461-1.637-0.461c-0.746,0.172-1.496,0-2.242,0l-0.145-0.891l14.941-1.93
			c3.734-0.602,7.305-0.453,10.461,0.438c3.566,0.602,6.555,2.094,8.648,4.48c2.242,2.242,3.734,5.684,4.484,10.023
			c0.145,1.496,0.145,2.988,0,4.629c-0.289,1.492-0.605,2.984-1.184,4.48c-0.602,1.496-1.348,2.988-2.242,4.172
			c-0.91,1.203-2.098,2.238-3.59,3.156c-1.492,0.891-2.988,1.781-4.793,2.383c-1.785,0.746-3.422,1.039-5.227,1.184l-16.727,2.242
			l-0.148-0.891c1.496-0.148,2.391-0.438,2.988-0.898c0.602-0.141,1.039-0.746,1.184-1.344c0.168-0.602,0.168-1.641,0-2.992
			L315.395,136.414z"/>
		<path style="fill-rule:evenodd;clip-rule:evenodd;fill:#363639;" d="M383.832,128.656c0.582,0.293,1.496,0.746,2.387,1.039
			c1.039-0.145,1.781-0.746,1.93-1.953h1.203l0.141,11.809L388,139.402c-0.141-1.637-0.742-3.273-1.492-4.77
			c-0.75-1.203-1.93-2.555-3.133-3.445c-1.344-1.039-2.695-1.637-4.336-1.785c-1.785-0.164-3.277,0.148-4.168,1.184
			c-1.062,0.891-1.812,1.953-1.812,2.988c-0.141,1.059,0,2.094,0.602,2.988c0.289,0.891,1.039,1.805,1.789,2.551
			c0.914,0.746,2.094,1.641,3.156,2.535c1.324,0.746,2.383,1.637,3.727,2.527c4.926,3.59,7.16,7.473,6.871,11.52
			c-0.141,1.93-0.891,3.734-2.094,5.086c-1.352,1.328-2.844,2.238-4.477,2.82c-1.793,0.164-3.742,0.453-5.691,0.309
			c-0.746-0.145-1.492-0.145-2.07-0.453c-0.75-0.293-1.664-0.602-2.844-0.602c-1.062-0.582-1.645-0.746-1.812-0.746
			c-0.891-0.438-1.492-0.582-1.781-0.75c-1.035,0-1.496,0.75-1.637,1.496h-1.203l-0.75-11.352h1.203
			c1.492,5.227,4.027,8.359,7.613,10.023c0.891,0.289,1.789,0.582,2.535,0.582c1.949,0.309,3.594-0.293,4.938-1.184
			c1.5-0.891,2.242-2.242,2.531-4.047c0.168-1.332-0.141-2.68-0.582-3.57c-0.449-0.914-1.199-1.953-1.949-2.551
			c-0.895-0.895-1.945-1.785-3.59-2.848c-1.348-1.035-2.844-2.07-3.734-2.816c-1.18-0.75-2.094-1.809-3.133-2.555
			c-0.742-0.891-1.492-1.637-1.785-2.68c-0.91-1.348-1.203-2.984-1.059-4.793c0.148-1.637,0.75-3.133,1.492-4.48
			c1.059-1.184,2.391-2.238,3.883-2.844c1.664-0.891,3.445-1.039,5.398-0.891C380.098,126.996,381.883,127.598,383.832,128.656"/>
		<path style="fill-rule:evenodd;clip-rule:evenodd;fill:#363639;" d="M397.113,138.949l2.555-9.109l29.422,7.324l-1.93,9.254
			l-1.203-0.289c-0.148-0.895,0-1.785-0.148-2.699c0.148-1.035,0.148-1.637-0.141-2.387c-0.312-0.746-0.914-1.492-1.805-1.93
			c-0.75-0.746-1.934-1.203-3.426-1.492l-4.195-1.059l-6.719,27.203c-0.293,1.035-0.148,1.785,0,2.535
			c0.289,0.746,0.453,1.199,1.203,1.492c0.891,0.453,1.641,0.746,2.984,1.203l-0.164,1.039l-15.379-3.883l0.148-1.055
			c1.641,0.453,3.133,0.453,4.023,0.164c0.746-0.312,1.496-1.207,1.953-2.699l6.723-27.352l-3.445-0.891
			c-1.492-0.289-2.816-0.434-3.879-0.434c-1.039,0.145-1.781,0.434-2.68,1.492c-0.914,0.582-1.805,1.93-2.695,3.879"/>
		<path style="fill-rule:evenodd;clip-rule:evenodd;fill:#363639;" d="M448.078,152.395l-11.664,10.914l11.496,5.086
			 M427.91,168.082l24.195-22.098l0.891,0.289l-0.148,34.512c0.148,1.348,0.148,2.551,0.602,3.297
			c0.438,0.602,1.039,1.18,2.102,1.641l-0.461,1.035l-12.699-5.52l0.453-1.039c0.289,0,0.59,0.148,0.75,0.438
			c1.785,0.75,2.984,0.602,3.566-0.602c0.168-0.438,0.168-1.184,0.316-2.074v-6.891l-13.016-5.664l-4.918,4.629
			c-0.309,0.145-0.602,0.746-1.203,1.348c-0.141,0.891,0,1.496,0.461,1.93c0.434,0.602,1.344,1.059,2.383,1.66l-0.457,1.035
			l-9.855-4.336l0.457-1.035c0.895,0.289,1.785,0.289,2.676,0.145C424.918,170.492,426.41,169.574,427.91,168.082z"/>
		<path style="fill-rule:evenodd;clip-rule:evenodd;fill:#363639;" d="M469.281,165.098l5.52-7.617l25.258,16.891l-5.086,7.906
			l-0.891-0.582c0-0.75,0.457-1.66,0.598-2.551c0.461-0.895,0.609-1.641,0.609-2.242c0-0.895-0.316-1.785-0.898-2.387
			c-0.453-1.035-1.656-1.949-2.844-2.699l-3.586-2.383l-15.543,23.156c-0.602,1.055-0.742,1.805-0.891,2.551
			c0,0.75,0.148,1.184,0.742,1.785c0.75,0.605,1.207,1.352,2.391,2.098l-0.602,0.891l-13.137-8.816l0.602-0.895
			c1.492,0.895,2.68,1.348,3.734,1.496c0.75,0,1.641-0.602,2.531-1.949l15.688-23.305l-2.988-2.098
			c-1.203-0.746-2.242-1.328-3.273-1.641c-1.062-0.434-1.953-0.145-3.156,0.312c-1.039,0.438-2.242,1.328-3.734,2.68"/>
		<path style="fill-rule:evenodd;clip-rule:evenodd;fill:#363639;" d="M504.105,185.121c1.039-1.184,1.492-2.242,1.492-2.988
			c0.148-1.039-0.602-2.242-2.094-3.59l0.742-0.746l20.922,19.418l-4.941,5.688l-1.039-0.891c0.891-1.207,1.352-2.242,1.641-2.988
			c0.148-0.891,0-1.953-0.289-2.844c-0.602-0.891-1.492-1.949-2.844-3.277l-6.121-5.543c-0.457-0.434-0.91-0.602-1.203-0.602
			c-0.148,0.168-0.598,0.312-1.039,0.602v0.148c0,0,0,0,0,0.164l-8.07,8.508l5.52,5.23c1.348,1.203,2.391,1.949,3.133,2.387
			c0.75,0.309,1.492,0.453,2.242,0c0.602-0.148,1.66-0.895,2.984-1.785l0.922,0.891l-8.824,9.422l-0.891-0.914
			c0.582-1.18,1.18-1.93,1.324-2.242c0.309-0.578,0.457-1.18,0.309-1.637c0.148-0.438-0.141-1.039-0.594-1.641
			c-0.605-0.598-1.207-1.492-2.391-2.531l-5.371-5.395l-9.422,10.023c-0.289,0.434-0.461,0.891-0.602,1.18
			c0.141,0.312,0.312,0.75,0.602,1.207s1.035,1.203,2.094,2.098c1.934,1.781,3.594,3.277,5.086,4.477
			c1.324,1.188,2.984,1.934,4.77,2.098c1.789,0.145,3.734-0.453,5.977-1.496l1.203,1.188l-7.922,4.938l-21.379-19.879l0.605-0.746
			c0.895,0.891,1.805,1.492,2.387,1.641c0.602,0.305,1.344,0.453,2.094,0.16c0.602-0.309,1.352-0.91,2.242-1.801"/>
		<path style="fill-rule:evenodd;clip-rule:evenodd;fill:#363639;" d="M541.461,217.242c0.289,0.75,0.43,1.496,0.891,2.387
			c0.742,0.602,1.781,0.746,2.844,0l0.582,1.059l-8.512,8.215l-0.895-1.203c1.184-1.18,2.094-2.676,2.535-4.336
			c0.453-1.496,0.602-3.133,0.453-4.625c-0.145-1.641-0.742-3.137-1.805-4.484c-1.035-1.348-2.242-2.098-3.734-2.242
			c-1.184-0.145-2.535,0.145-3.426,0.895c-0.891,0.598-1.344,1.492-1.805,2.551c-0.289,0.746-0.43,1.93-0.289,3.137
			c-0.141,1.199,0,2.527,0.141,3.879c0.32,1.492,0.461,2.984,0.75,4.48c0.75,5.977-0.43,10.312-3.586,12.848
			c-1.5,1.203-3.281,1.805-5.066,1.945c-1.953,0-3.586-0.453-5.227-1.199c-1.352-1.184-2.844-2.387-4.047-3.883
			c-0.602-0.602-1.043-1.18-1.352-1.781c-0.141-0.746-0.582-1.645-1.332-2.555c-0.16-1.184-0.602-1.785-0.602-1.785
			c-0.309-0.895-0.594-1.348-0.742-1.641c-0.602-0.746-1.492-0.746-2.383-0.145l-0.75-1.059l7.902-8.215l0.75,0.891
			c-2.676,4.48-3.426,8.672-2.094,12.266c0.602,0.891,0.91,1.781,1.344,2.387c1.352,1.492,2.703,2.238,4.195,2.699
			c1.781,0.285,3.277-0.172,4.773-1.062c1.055-0.891,1.637-1.93,2.094-2.988c0.453-0.891,0.602-2.094,0.602-3.277
			c0-1.059-0.309-2.551-0.602-4.191c-0.148-1.785-0.289-3.59-0.457-4.77c-0.141-1.496-0.289-2.699-0.289-3.887
			c0-1.203,0.148-2.402,0.598-3.152c0.602-1.641,1.5-2.988,2.844-4.168c1.184-1.062,2.824-1.809,4.316-1.953
			c1.664-0.145,3.305,0,4.797,0.746c1.641,0.605,3.137,1.641,4.336,3.133C540.109,213.359,540.859,215,541.461,217.242"/>
		<path style="fill-rule:evenodd;clip-rule:evenodd;fill:#363639;" d="M156.734,302.719l9.109,2.074l-5.379,29.879l-9.129-1.492
			l0.164-1.188c0.75-0.141,1.645-0.141,2.535-0.309c0.891,0.168,1.781-0.145,2.387-0.434c0.891-0.312,1.492-0.895,1.949-1.805
			c0.602-0.75,0.891-1.93,1.184-3.426l0.746-4.336l-27.473-4.938c-1.207-0.293-1.953-0.148-2.555,0.164
			c-0.746,0.289-1.18,0.582-1.492,1.328c-0.289,0.914-0.602,1.805-0.891,3.152l-1.039-0.309l2.82-15.543l1.059,0.312
			c-0.312,1.637-0.312,2.984,0,3.879c0.289,0.75,1.352,1.496,2.988,1.641l27.641,5.082l0.602-3.59
			c0.293-1.348,0.293-2.844,0.145-3.734c0-1.039-0.602-1.93-1.492-2.68c-0.75-0.91-2.098-1.656-4.047-2.551"/>
		<path style="fill-rule:evenodd;clip-rule:evenodd;fill:#363639;" d="M155.238,347.371l-13.156-1.328
			c-0.145,2.535-0.289,4.629,0,6.414c0.145,1.949,0.746,3.445,1.785,4.793c1.059,1.184,2.695,1.93,4.789,2.078
			c4.777,0.453,7.473-2.391,8.078-8.656c0.141-1.348,0.141-2.242-0.168-2.695C156.422,347.539,155.984,347.371,155.238,347.371
			 M131.02,339.324l22.871,2.238c1.18,0.145,2.238,0.145,2.844,0c0.578,0,1.18-0.457,1.492-1.059
			c0.289-0.602,0.582-1.641,0.891-2.988l1.039,0.145l-1.496,15.398c-0.145,1.785-0.598,3.445-1.035,4.938
			c-0.602,1.637-1.203,2.824-1.953,4.027c-1.035,1.203-2.094,2.098-3.273,2.699c-1.352,0.574-2.699,0.746-4.488,0.574
			c-2.383-0.285-4.191-1.324-5.828-2.82c-1.348-1.656-2.094-4.336-2.531-7.781l-13.613,9.109c-0.891,0.75-1.496,1.207-1.934,1.492
			c-0.453,0.316-0.746,0.75-1.055,1.496c-0.289,0.457-0.582,1.207-0.582,2.098l-1.055-0.145l0.891-8.82l17.348-11.203l0.289-2.988
			l-10.746-1.039c-1.203-0.145-2.098,0-2.555,0c-0.602,0.293-1.035,0.746-1.492,1.492c-0.293,0.438-0.605,1.496-0.746,2.844
			l-1.043-0.164l1.496-14.777l1.039,0.145c0,1.496,0,2.391,0.145,3.137c0.312,0.602,0.602,1.035,1.348,1.348
			C128.031,338.863,129.383,339.152,131.02,339.324z"/>
		<path style="fill-rule:evenodd;clip-rule:evenodd;fill:#363639;" d="M152.832,386.219l-15.379-4.316l1.641,12.387
			 M128.926,377.109l31.375,8.965l0.164,1.055l-29.445,17.762c-1.18,0.918-2.094,1.496-2.527,2.246
			c-0.312,0.598-0.461,1.492-0.312,2.695l-1.039,0.148l-1.785-13.742l1.039-0.141c0,0.289,0,0.578-0.145,1.035
			c0.289,1.949,1.035,2.844,2.383,2.699c0.461,0,1.207-0.457,1.953-0.914l5.977-3.422l-1.805-14.051l-6.727-1.953
			c-0.289-0.145-0.891-0.145-1.781-0.145c-0.746,0.145-1.203,0.605-1.496,1.207c-0.145,0.746-0.312,1.637,0,2.844l-1.059,0.141
			l-1.492-10.766l1.055-0.145c0.148,0.891,0.605,1.801,1.184,2.551C125.191,375.758,126.852,376.508,128.926,377.109z"/>
		<path style="fill-rule:evenodd;clip-rule:evenodd;fill:#363639;" d="M137,417.305l22.262-6.871
			c0.746-1.203,1.352-2.242,1.496-3.133c0.145-0.457,0.145-1.66-0.145-2.844l1.184-0.309l2.699,8.961l-18.68,27.355l17.328-5.379
			c2.844-0.891,4.336-1.801,4.938-2.984c0.289-1.062,0.289-2.391-0.145-3.734l1.184-0.316l3.734,12.121l-1.184,0.293
			c-0.457-1.203-0.91-2.102-1.348-2.535c-0.602-0.602-1.352-0.91-2.098-1.059c-0.891-0.145-2.383,0-4.023,0.602l-27.348,8.359
			l-0.293-0.742l20.918-31.375v-0.145l-19.734,6.266c-1.496,0.453-2.535,0.914-3.281,1.203c-0.891,0.457-1.203,0.891-1.805,1.348
			c-0.289,0.438-0.438,1.039-0.578,1.93c0.141,0.605,0.141,1.352,0.43,2.406l-1.035,0.293l-3.734-12.41l1.039-0.289
			c0.457,1.348,0.891,2.238,1.203,2.383c0.145,0.461,0.602,0.891,1.035,1.207c0.457,0.141,1.203,0.434,2.098,0.289
			C134.156,418.047,135.359,417.762,137,417.305"/>
		<path style="fill-rule:evenodd;clip-rule:evenodd;fill:#363639;" d="M180.035,457.352c-0.145,0.75,0,1.641,0.145,2.531
			c0.602,0.895,1.641,1.043,2.699,0.602l0.582,1.184l-10.293,5.977l-0.605-1.324c1.352-0.918,2.535-2.242,3.426-3.742
			c0.914-1.344,1.496-2.984,1.496-4.477c0.312-1.664,0.164-3.156-0.582-4.648c-0.75-1.641-1.66-2.68-3.152-3.133
			c-1.188-0.293-2.391-0.441-3.57,0.141c-0.914,0.312-1.66,1.059-2.41,2.102c-0.289,0.742-0.891,1.805-1.035,2.836
			c-0.289,1.039-0.457,2.391-0.746,3.742c0,1.785-0.145,3.129-0.457,4.621c-0.582,6.125-2.68,10.023-6.414,11.664
			c-1.805,0.75-3.59,1.043-5.371,0.602c-1.809-0.309-3.301-1.059-4.793-2.242c-1.043-1.656-2.242-3.152-3.137-4.938
			c-0.289-0.602-0.602-1.352-0.746-1.953c0-0.891-0.145-1.633-0.605-2.816c0-1.059-0.145-1.809-0.285-1.953
			c0-0.75-0.148-1.492-0.312-1.641c-0.293-1.055-1.328-1.203-2.242-0.742l-0.434-1.203l9.562-6.27l0.438,1.184
			c-3.59,3.734-5.082,7.781-4.773,11.367c0.293,1.184,0.438,1.934,0.746,2.676c0.895,1.812,1.93,2.844,3.59,3.742
			c1.328,0.742,2.992,0.602,4.629,0c1.184-0.438,2.242-1.5,2.844-2.242c0.434-1.039,1.035-1.93,1.184-3.133
			c0.309-1.043,0.598-2.387,0.598-4.336c0.148-1.645,0.457-3.426,0.605-4.777c0.145-1.203,0.602-2.555,0.746-3.879
			c0.293-1.059,0.602-2.098,1.348-2.844c0.746-1.352,2.074-2.551,3.738-3.445c1.492-0.75,3.133-0.891,4.625-0.75
			c1.641,0.152,3.133,0.75,4.48,1.953c1.352,0.891,2.535,2.387,3.426,4.027C179.578,453.164,179.891,454.945,180.035,457.352"/>
		<path style="fill-rule:evenodd;clip-rule:evenodd;fill:#363639;" d="M188.852,476.777l-11.512,7.473
			c0.457,0.43,0.891,1.18,1.637,2.234c1.664,2.535,3.445,4.316,5.539,5.066c1.934,0.914,3.883,0.461,6.414-1.184
			c4.047-2.695,4.336-7.328,0.164-13.59c-0.309-0.457-0.598-0.602-0.746-0.602C189.746,476.176,189.438,476.32,188.852,476.777
			 M164.203,486.324l20.004-13.141c0.914-0.602,1.66-1.203,2.242-1.641c0.309-0.453,0.453-1.203,0.453-1.805
			s-0.453-1.633-1.203-2.844l0.914-0.574l7.906,12.094c1.203,1.781,2.238,3.883,2.699,5.977c0.746,2.094,0.746,4.176,0.438,6.121
			c-0.438,2.102-1.645,3.594-3.426,4.773c-1.062,0.602-2.242,1.203-3.445,1.203c-1.348,0.293-2.535,0.148-3.734-0.141
			c-1.93-0.316-3.59-0.891-5.23-2.242c-1.496-1.203-3.133-2.992-4.336-4.938c-1.039-1.934-1.641-3.137-2.078-3.594l-8.816,5.688
			c-1.059,0.75-1.492,1.031-1.809,1.781c-0.285,0.75-0.285,1.203-0.145,1.953c0.312,0.75,0.75,1.641,1.352,2.695l-0.891,0.582
			l-8.223-12.531l0.895-0.602c0.457,0.602,0.891,1.184,1.348,1.492c0.602,0.441,1.039,0.891,1.93,0.891
			C161.797,487.672,162.852,487.234,164.203,486.324z"/>
		<path style="fill-rule:evenodd;clip-rule:evenodd;fill:#363639;" d="M194.832,507.984c-2.555,2.406-4.484,5.398-6.289,8.965
			c-1.785,3.734-1.184,7.18,1.953,10.625c1.637,1.926,3.879,3.137,5.973,3.277c2.387,0.289,4.629-0.289,7.016-1.352
			c2.387-1.035,4.625-2.836,7.035-4.91c2.238-2.102,4.027-4.344,5.375-6.727c1.18-2.098,1.785-4.648,1.637-6.723
			c-0.145-2.41-0.891-4.195-2.387-5.977L215,505c-1.805-1.934-3.898-2.992-6.289-3.133c-2.383-0.148-4.77,0.309-7.156,1.633
			C199.148,504.711,196.906,506.203,194.832,507.984 M190.641,503.5c2.098-1.781,4.336-3.277,6.43-4.316
			c2.242-0.742,4.629-1.344,6.871-1.203c2.242-0.141,4.625,0.461,6.578,1.352c2.383,0.891,4.172,2.387,5.973,4.168
			c1.645,1.812,2.992,3.906,3.738,5.98c0.746,2.242,1.039,4.484,1.039,6.727c-0.148,2.402-0.75,4.648-1.785,6.883
			c-0.914,2.242-2.41,4.316-4.484,6.27c-1.949,1.781-4.047,2.984-6.289,3.883c-2.238,0.891-4.625,1.344-6.863,1.344
			c-2.391,0.148-4.488-0.453-6.871-1.344c-2.098-1.184-4.047-2.531-5.688-4.484c-1.492-1.641-2.676-3.586-4.023-5.52
			c-0.75-1.953-1.059-4.195-1.059-6.43c0.164-2.391,0.602-4.637,1.805-6.871C186.902,507.695,188.543,505.453,190.641,503.5z"/>
		<path style="fill-rule:evenodd;clip-rule:evenodd;fill:#363639;" d="M236.207,526.664l-8.07,10.617
			c1.953,1.641,3.734,2.684,5.371,3.285c1.809,1.039,3.445,1.199,4.941,0.891c1.641-0.145,3.133-1.184,4.34-2.844
			c2.988-3.879,1.926-7.762-2.992-11.496c-1.199-0.746-1.949-1.203-2.387-1.203C236.953,525.77,236.664,526.082,236.207,526.664
			 M216.641,543.262l13.883-18.383c0.746-0.891,1.203-1.789,1.492-2.391c0.312-0.602,0-1.203-0.145-1.805
			c-0.289-0.578-1.18-1.328-2.094-2.383l0.602-0.75l12.262,9.273c1.496,1.043,2.82,2.242,3.738,3.285
			c1.18,1.344,1.926,2.531,2.383,3.875c0.438,1.492,0.746,2.844,0.602,4.195c-0.312,1.492-0.746,2.676-1.805,4.168
			c-1.496,1.953-3.422,2.844-5.371,3.445c-2.098,0.289-4.941-0.453-8.074-1.953l0.895,16.438c0,1.207,0.309,1.949,0.309,2.41
			c0,0.434,0.145,1.031,0.602,1.633c0.289,0.602,0.746,1.191,1.492,1.645l-0.602,0.891l-7.18-5.371l-0.438-20.629l-2.402-1.785
			l-6.414,8.508c-0.746,0.91-1.203,1.809-1.348,2.41c-0.145,0.582-0.145,1.18,0.289,1.93c0.457,0.453,1.059,1.203,2.094,2.098
			l-0.602,0.891l-11.781-8.965l0.578-0.898c1.348,0.75,2.242,1.352,2.695,1.5c0.602,0.141,1.352,0,1.953-0.461
			C214.691,545.652,215.746,544.59,216.641,543.262z"/>
		<path style="fill-rule:evenodd;clip-rule:evenodd;fill:#363639;" d="M253.68,546.254l4.648-8.074l26.895,14.043l-4.191,8.371
			l-1.039-0.609c0.148-0.742,0.438-1.492,0.438-2.527c0.309-0.918,0.457-1.66,0.309-2.41c0-0.742-0.598-1.633-1.199-2.383
			c-0.602-0.746-1.645-1.352-2.992-2.094l-3.879-1.934l-12.844,24.656c-0.602,1.18-0.602,1.926-0.602,2.527
			c0,0.746,0.289,1.348,0.891,1.949c0.746,0.441,1.348,0.895,2.535,1.492l-0.441,1.043l-14.047-7.328l0.457-1.035
			c1.637,0.891,2.988,1.352,3.734,1.203c1.039,0,1.785-0.742,2.535-2.242l12.988-24.82l-3.133-1.641
			c-1.348-0.742-2.68-1.344-3.59-1.492c-0.895-0.141-1.93,0.148-2.992,0.75c-1.035,0.453-2.07,1.492-3.418,3.133"/>
		<path style="fill-rule:evenodd;clip-rule:evenodd;fill:#363639;" d="M294.332,561.336l-10.457,12.098l11.953,3.734
			 M276.094,578.953l21.371-24.648l0.891,0.453l3.883,34.219c0.168,1.352,0.312,2.387,0.746,2.984
			c0.605,0.602,1.352,1.191,2.406,1.645l-0.309,1.039l-13.137-4.176l0.293-1.059c0.289,0,0.602,0.168,0.891,0.316
			c1.805,0.602,2.988,0.289,3.445-1.059c0-0.293,0-1.043-0.145-1.934l-0.602-6.871l-13.594-4.336l-4.484,5.379
			c-0.164,0-0.453,0.602-0.91,1.492c0,0.602,0,1.352,0.602,1.781c0.602,0.461,1.348,0.914,2.551,1.352l-0.309,1.062l-10.316-3.305
			l0.316-1.031c0.887,0.289,1.926,0.289,2.672-0.152C273.27,581.797,274.598,580.613,276.094,578.953z"/>
		<path style="fill-rule:evenodd;clip-rule:evenodd;fill:#363639;" d="M309.707,568.059l1.496-9.105l30.191,4.023l-0.891,9.254
			l-1.207-0.148c-0.141-0.891-0.289-1.781-0.453-2.676c0-0.91-0.148-1.66-0.582-2.402c-0.312-0.75-1.059-1.332-1.949-1.785
			c-0.746-0.457-2.098-0.898-3.59-1.039l-4.336-0.602l-3.738,27.785c-0.145,1.199,0,2.094,0.312,2.699
			c0.289,0.582,0.746,1.184,1.492,1.324c0.895,0.312,1.789,0.602,3.137,0.75l-0.148,1.055l-15.688-2.094l0.145-1.035
			c1.789,0.285,3.137,0.145,3.883-0.309c0.891-0.297,1.492-1.352,1.637-2.992l3.738-27.934l-3.57-0.453
			c-1.496-0.148-2.844-0.148-3.734,0c-1.203,0.145-1.953,0.602-2.699,1.637c-0.891,0.75-1.492,2.242-2.242,4.195"/>
		<path style="fill-rule:evenodd;clip-rule:evenodd;fill:#363639;" d="M354.531,570.449c0.168-1.641,0-2.844-0.293-3.445
			c-0.289-0.582-0.746-1.039-1.348-1.188c-0.602-0.145-1.785-0.305-3.422-0.453v-1.184h15.828v1.184
			c-1.344,0.148-2.234,0.148-2.984,0.453c-0.602,0.148-1.203,0.438-1.641,1.039c-0.312,0.75-0.602,1.641-0.602,2.992l-0.141,24.957
			c0,1.184,0.43,2.074,1.031,2.824s2.102,1.062,4.195,1.062v1.031h-15.855v-1.031c1.496,0,2.695-0.148,3.445-0.461
			c0.602-0.289,1.203-0.742,1.352-1.352c0.293-0.43,0.434-1.324,0.434-2.383"/>
		<path style="fill-rule:evenodd;clip-rule:evenodd;fill:#363639;" d="M374.262,581.797c0.438,3.297,1.641,6.871,3.594,10.316
			c2.074,3.586,5.227,5.078,9.715,4.477c2.523-0.289,4.766-1.344,6.117-3.133c1.645-1.637,2.535-3.73,2.988-6.434
			c0.438-2.672,0.297-5.516-0.145-8.504c-0.309-3.133-1.199-5.977-2.098-8.363c-1.203-2.242-2.84-4.043-4.621-5.086
			c-2.102-1.352-4.055-1.801-6.438-1.492h-0.145c-2.699,0.434-4.793,1.641-6.125,3.426c-1.656,1.953-2.555,4.047-2.984,6.57
			C373.949,576.277,373.809,578.953,374.262,581.797 M367.98,582.688c-0.441-2.824-0.293-5.375,0.16-7.762
			c0.582-2.383,1.492-4.625,2.824-6.266c1.352-1.945,3.156-3.441,5.086-4.648c2.094-1.324,4.336-2.238,6.871-2.527
			c2.406-0.289,4.789-0.148,7.031,0.453c2.242,0.582,4.176,1.492,5.977,2.984c1.926,1.332,3.426,3.137,4.629,5.379
			c1.352,2.102,2.094,4.484,2.383,7.328c0.461,2.527,0.312,4.918-0.289,7.152c-0.461,2.391-1.492,4.629-2.844,6.582
			c-1.203,1.949-2.836,3.594-4.938,4.938c-1.934,0.891-4.316,1.641-6.871,1.93c-2.242,0.312-4.336,0.148-6.867,0.148
			c-2.094-0.438-4.191-1.328-5.973-2.824c-1.785-1.348-3.445-3.152-4.629-5.395C369.184,588.086,368.289,585.391,367.98,582.688z"/>
		<path style="fill-rule:evenodd;clip-rule:evenodd;fill:#363639;" d="M414.609,584.352l-7.328-22.125
			c-1.203-0.742-2.246-1.203-3.137-1.492c-0.602,0-1.633,0-2.844,0.289l-0.453-1.039l8.965-2.984l27.805,18.074l-5.684-17.184
			c-1.039-2.844-1.949-4.336-3.133-4.918c-1.203-0.309-2.391-0.309-3.734,0.293l-0.461-1.043l11.957-4.047l0.453,1.062
			c-1.062,0.438-2.094,1.039-2.555,1.492c-0.434,0.438-0.742,1.188-1.031,2.082c0,0.91,0.141,2.402,0.742,4.047l9.262,27.18
			l-0.895,0.141l-31.812-20.168h-0.164l6.574,19.59c0.457,1.492,0.891,2.531,1.348,3.281c0.293,0.891,0.75,1.352,1.203,1.785
			c0.582,0.309,1.184,0.457,1.934,0.457c0.742,0,1.344-0.148,2.551-0.457l0.434,1.059l-12.387,4.027l-0.453-1.043
			c1.344-0.598,2.094-0.891,2.383-1.199c0.461-0.148,0.75-0.602,1.203-1.043c0.148-0.602,0.289-1.344,0.148-2.234
			C415.352,587.336,415.203,585.992,414.609,584.352"/>
		<path style="fill-rule:evenodd;clip-rule:evenodd;fill:#363639;" d="M467.5,563.719c-3.156-1.781-5.688-3.875-7.926-7.012
			c-1.348-2.242-2.242-4.484-2.699-6.887c-0.434-2.242-0.434-4.316-0.293-6.121c0.148-1.352,0.461-2.844,1.203-4.336
			c0.293-1.332,1.332-2.992,2.535-4.484c1.039-1.637,2.695-2.988,4.484-4.168c0.891-0.602,1.781-0.895,2.383-1.211
			c0.75-0.285,1.953-0.742,3.445-1.035c1.785-0.598,2.988-0.891,3.738-1.492c0.891-0.602,1.039-1.492,0.742-2.984l0.898-0.602
			l7.18,9.996l-1.062,0.602c-1.641-1.492-3.422-2.531-5.227-3.133c-1.934-0.453-3.734-0.602-5.227-0.453
			c-1.645,0.453-3.426,0.91-4.918,1.945c-1.812,1.211-3.164,2.992-4.344,4.938c-0.891,1.934-1.492,4.176-1.203,6.418
			c0.312,2.695,1.492,5.828,3.594,9.422c1.633,2.238,3.133,4.02,5.227,5.52c1.785,1.492,3.879,2.383,5.832,2.844
			c3.273,0.289,6.266-0.461,9.109-2.242c3.879-2.535,6.266-6.27,7.324-11.207l1.352,0.141c0,2.102-0.461,3.887-1.203,5.547
			c-0.898,1.785-1.953,3.418-3.133,4.629c-1.352,1.352-2.844,2.844-4.629,3.875c-1.66,1.043-3.445,1.953-5.547,2.695
			c-1.922,0.441-4.023,0.75-6.117,0.75C470.926,565.363,469.141,564.762,467.5,563.719"/>
		<path style="fill-rule:evenodd;clip-rule:evenodd;fill:#363639;" d="M495.43,531.742c2.242,2.391,5.371,4.629,8.965,6.289
			c3.586,1.641,7.18,1.039,10.457-2.094c1.953-1.805,3.133-3.879,3.281-5.977c0.164-2.555-0.289-4.629-1.492-6.871
			c-1.039-2.695-2.68-4.938-4.918-7.18c-2.098-2.238-4.336-4.02-6.727-5.23c-2.242-1.199-4.629-1.781-6.723-1.781
			c-2.383,0.289-4.336,0.891-6.125,2.531l-0.164,0.145c-1.93,1.809-2.984,4.191-2.984,6.438c-0.148,2.383,0.453,4.766,1.656,7.012
			C491.844,527.406,493.48,529.648,495.43,531.742 M490.945,536.086c-1.945-2.102-3.438-4.344-4.477-6.586
			c-0.895-2.094-1.352-4.477-1.352-6.863c0-2.094,0.457-4.336,1.352-6.578c0.891-2.242,2.383-4.168,4.188-5.98
			c1.789-1.633,3.883-2.984,5.977-3.586c2.074-0.891,4.316-1.328,6.723-1.18c2.391,0,4.484,0.742,6.727,1.633
			c2.387,1.039,4.316,2.535,6.262,4.629c1.789,1.949,3.137,3.883,3.883,6.125c1.062,2.094,1.496,4.48,1.645,6.723
			c0.16,2.402-0.441,4.645-1.332,7.031c-0.91,2.102-2.242,3.883-4.195,5.668c-1.633,1.492-3.445,2.844-5.68,4.043
			c-2.082,0.895-4.176,1.352-6.418,1.184c-2.383,0-4.789-0.582-7.031-1.781C494.973,539.816,492.898,538.031,490.945,536.086z"/>
		<path style="fill-rule:evenodd;clip-rule:evenodd;fill:#363639;" d="M529.504,511.574l-18.531-12.844
			c-0.602-0.602-1.492-1.039-1.949-1.203c-0.441-0.148-1.184,0.164-1.934,0.453c-0.602,0.461-1.492,1.203-2.547,2.391l-0.75-0.598
			l6.289-8.805l29.277,5.379l-15.539-24.965l6.121-8.805l0.742,0.441c-0.891,1.352-1.18,2.094-1.18,2.695
			c-0.168,0.438-0.168,1.18,0.289,1.781c0.461,0.609,1.039,1.352,2.387,2.102l18.824,13.301c1.352,1.031,2.555,1.492,3.297,1.781
			c0.75,0.148,1.492,0,1.781-0.289c0.312-0.141,1.062-1.059,2.102-2.094l1.035,0.602l-8.504,12.238l-1.043-0.602
			c0.582-1.324,1.043-2.242,1.184-2.82c0.309-0.746,0.148-1.348-0.434-1.945c-0.309-0.602-1.207-1.496-2.551-2.395l-19.57-13.75
			v0.16l17.324,28.535l-0.43,0.598l-31.836-5.828v0.148l17.637,12.098c1.781,1.344,3.281,1.945,4.027,2.238
			c1.199,0.316,1.949,0.148,2.391-0.293c0.453-0.453,1.203-1.055,2.094-2.234l1.031,0.602l-7.461,10.598l-1.043-0.602
			c1.352-1.945,1.785-3.438,1.043-4.625C532.637,514.125,531.434,512.922,529.504,511.574"/>
		<path style="fill-rule:evenodd;clip-rule:evenodd;fill:#363639;" d="M559.074,465.715l-20.77-8.527
			c-0.891-0.289-1.641-0.438-2.242-0.578c-0.441,0-1.039,0.43-1.785,0.891c-0.457,0.434-1.039,1.641-1.789,2.844l-1.055-0.312
			l4.188-10.152l29.887-1.203l-20.914-20.91l4.02-10.004l0.898,0.285c-0.441,1.496-0.582,2.387-0.582,2.992
			c-0.168,0.602,0.141,1.203,0.742,1.492c0.441,0.602,1.332,1.203,2.684,1.785l21.371,8.676c1.637,0.602,2.844,0.891,3.734,0.891
			c0.746,0.145,1.184-0.148,1.637-0.598c0.289-0.293,0.75-1.184,1.492-2.676l1.211,0.43l-5.688,13.902l-1.203-0.453
			c0.453-1.18,0.602-2.242,0.742-2.82c0-0.75-0.141-1.496-0.891-1.805c-0.602-0.602-1.637-1.184-3.137-1.789l-22.113-9.105v0.141
			l23.324,24.055l-0.316,0.602l-32.262,1.344v0.148l19.879,8.07c2.074,0.75,3.566,1.184,4.477,1.043
			c1.184,0.141,1.785-0.293,2.246-0.609c0.43-0.602,0.891-1.492,1.492-2.836l1.18,0.449l-4.918,12.102l-1.199-0.434
			c0.891-2.242,0.891-3.734,0-4.797C562.664,467.496,561.312,466.605,559.074,465.715"/>
		<path style="fill-rule:evenodd;clip-rule:evenodd;fill:#363639;" d="M559.074,405.953l13.012,9.566l2.824-12.266 M578.355,422.824
			l-26.297-19.426l0.148-1.035l33.762-6.266c1.348-0.461,2.551-0.75,3.133-1.207c0.602-0.602,1.059-1.348,1.352-2.531l1.203,0.148
			l-3.137,13.59l-1.203-0.145c0-0.312,0.145-0.602,0.293-0.891c0.453-1.953,0.16-2.992-1.184-3.301c-0.457-0.148-1.352,0-2.102,0
			l-6.719,1.203l-3.137,13.734l5.52,4.191c0,0.148,0.602,0.438,1.5,0.895c0.742,0,1.492-0.145,1.805-0.746
			c0.582-0.75,0.891-1.496,1.18-2.531l1.203,0.145l-2.383,10.457l-1.203-0.141c0.141-0.918,0-1.953-0.461-2.848
			C581.34,425.227,579.988,424.027,578.355,422.824z"/>
		<path style="fill-rule:evenodd;clip-rule:evenodd;fill:#363639;" d="M586.277,380.242l-23.324-0.895
			c-1.184,0.895-2.074,1.641-2.531,2.387c-0.285,0.602-0.602,1.664-0.602,2.844l-1.184-0.145l0.289-9.422l26.441-19.715
			l-18.078-0.602c-2.984-0.145-4.77,0.312-5.66,1.352c-0.609,0.891-0.918,2.094-1.059,3.586l-1.184-0.145l0.434-12.695l1.199,0.141
			c0.148,1.188,0.293,2.246,0.609,2.844c0.141,0.75,0.742,1.184,1.492,1.645c0.895,0.285,2.242,0.746,4.027,0.746l28.844,0.891
			v0.891l-30.344,22.871v0.145l20.629,0.602c1.492,0,2.676,0,3.566-0.145c1.062,0,1.668-0.312,2.242-0.602
			c0.461-0.461,0.75-0.895,1.062-1.641c0.141-0.602,0.289-1.352,0.438-2.551h1.203l-0.461,13.008h-1.18
			c-0.145-1.348-0.312-2.238-0.461-2.699c0-0.453-0.289-0.891-0.43-1.348c-0.461-0.289-1.203-0.746-2.098-0.895
			C589.27,380.41,587.918,380.242,586.277,380.242"/>
		<path style="fill-rule:evenodd;clip-rule:evenodd;fill:#363639;" d="M562.664,331.684l27.93-0.891c0.75,0,1.352-0.148,1.492-0.602
			c0.312-0.438,0.461-1.184,0.461-2.391c-0.148-3.273-0.602-6.117-1.352-8.211c-0.891-2.246-2.242-3.883-4.027-5.523
			c-1.344-1.059-2.844-1.805-4.625-2.238c-1.805-0.602-3.898-0.746-5.973-0.746c-2.242,0.145-4.195,0.434-6.145,1.18
			c-1.934,0.602-3.566,1.492-4.629,2.844c-1.934,1.805-3.277,3.879-3.879,6.285c-0.75,2.391-1.039,5.062-0.898,8.055
			c0,0.91,0.148,1.492,0.293,1.805C561.629,331.684,562.062,331.684,562.664,331.684 M564.906,337.227c-1.203,0-2.094,0-2.695,0.289
			c-0.582,0.312-0.898,0.602-1.191,0.891c-0.309,0.457-0.449,0.918-0.598,1.496c0,0.746-0.145,1.492-0.285,2.242h-0.918
			l-0.434-14.941c-0.148-3.883,0.434-7.305,1.492-10.293c1.035-3.445,2.988-6.289,5.371-8.219c2.531-2.098,6.125-3.301,10.465-3.59
			c1.633,0,3.133,0.289,4.625,0.438c1.492,0.453,2.992,1.055,4.336,1.66c1.352,0.746,2.695,1.785,3.879,2.82
			c1.059,0.91,1.953,2.242,2.844,3.734c0.75,1.664,1.352,3.301,1.953,5.086c0.43,1.805,0.578,3.445,0.75,5.23l0.43,16.891
			l-1.031,0.145c0-1.496-0.148-2.531-0.461-3.133c-0.148-0.602-0.75-1.059-1.352-1.348c-0.574-0.145-1.633-0.293-2.984-0.145
			L564.906,337.227z"/>
		<polyline style="fill-rule:evenodd;clip-rule:evenodd;fill:#FFEA50;" points="154.18,271.777 155.816,281.34 152.398,284.934 		
			"/>
		<polygon style="fill:none;stroke:#CBB500;stroke-width:0.4482;stroke-linejoin:round;stroke-miterlimit:2.6131;" points="
			154.18,271.777 155.816,281.34 152.398,284.934 		"/>
		<polyline style="fill-rule:evenodd;clip-rule:evenodd;fill:#FFEA50;" points="154.18,271.777 150.008,280.449 152.398,284.934 		
			"/>
		<polygon style="fill:none;stroke:#CBB500;stroke-width:0.4482;stroke-linejoin:round;stroke-miterlimit:2.6131;" points="
			154.18,271.777 150.008,280.449 152.398,284.934 		"/>
		<polyline style="fill-rule:evenodd;clip-rule:evenodd;fill:#FFEA50;" points="140.441,279.102 150.008,280.449 152.398,284.934 		
			"/>
		<polygon style="fill:none;stroke:#CBB500;stroke-width:0.4482;stroke-linejoin:round;stroke-miterlimit:2.6131;" points="
			140.441,279.102 150.008,280.449 152.398,284.934 		"/>
		<polyline style="fill-rule:evenodd;clip-rule:evenodd;fill:#FFEA50;" points="140.441,279.102 147.457,285.824 152.398,284.934 		
			"/>
		<polygon style="fill:none;stroke:#CBB500;stroke-width:0.4482;stroke-linejoin:round;stroke-miterlimit:2.6131;" points="
			140.441,279.102 147.457,285.824 152.398,284.934 		"/>
		<polyline style="fill-rule:evenodd;clip-rule:evenodd;fill:#FFEA50;" points="143.285,294.496 147.457,285.824 152.398,284.934 		
			"/>
		<polygon style="fill:none;stroke:#CBB500;stroke-width:0.4482;stroke-linejoin:round;stroke-miterlimit:2.6131;" points="
			143.285,294.496 147.457,285.824 152.398,284.934 		"/>
		<polyline style="fill-rule:evenodd;clip-rule:evenodd;fill:#FFEA50;" points="143.285,294.496 151.648,290.016 152.398,284.934 		
			"/>
		<polygon style="fill:none;stroke:#CBB500;stroke-width:0.4482;stroke-linejoin:round;stroke-miterlimit:2.6131;" points="
			143.285,294.496 151.648,290.016 152.398,284.934 		"/>
		<polyline style="fill-rule:evenodd;clip-rule:evenodd;fill:#FFEA50;" points="158.66,296.574 151.648,290.016 152.398,284.934 		
			"/>
		<polygon style="fill:none;stroke:#CBB500;stroke-width:0.4482;stroke-linejoin:round;stroke-miterlimit:2.6131;" points="
			158.66,296.574 151.648,290.016 152.398,284.934 		"/>
		<polyline style="fill-rule:evenodd;clip-rule:evenodd;fill:#FFEA50;" points="158.66,296.574 156.875,287.176 152.398,284.934 		
			"/>
		<polygon style="fill:none;stroke:#CBB500;stroke-width:0.4482;stroke-linejoin:round;stroke-miterlimit:2.6131;" points="
			158.66,296.574 156.875,287.176 152.398,284.934 		"/>
		<polyline style="fill-rule:evenodd;clip-rule:evenodd;fill:#FFEA50;" points="165.387,282.691 156.875,287.176 152.398,284.934 		
			"/>
		<polygon style="fill:none;stroke:#CBB500;stroke-width:0.4482;stroke-linejoin:round;stroke-miterlimit:2.6131;" points="
			165.387,282.691 156.875,287.176 152.398,284.934 		"/>
		<polyline style="fill-rule:evenodd;clip-rule:evenodd;fill:#FFEA50;" points="165.387,282.691 155.816,281.34 152.398,284.934 		
			"/>
		<polygon style="fill:none;stroke:#CBB500;stroke-width:0.4482;stroke-linejoin:round;stroke-miterlimit:2.6131;" points="
			165.387,282.691 155.816,281.34 152.398,284.934 		"/>
		<polyline style="fill-rule:evenodd;clip-rule:evenodd;fill:#FFEA50;" points="167.625,245.34 168.828,254.906 165.242,258.328 		
			"/>
		<polygon style="fill:none;stroke:#CBB500;stroke-width:0.4482;stroke-linejoin:round;stroke-miterlimit:2.6131;" points="
			167.625,245.34 168.828,254.906 165.242,258.328 		"/>
		<polyline style="fill-rule:evenodd;clip-rule:evenodd;fill:#FFEA50;" points="167.625,245.34 163,253.848 165.242,258.328 		"/>
		<polygon style="fill:none;stroke:#CBB500;stroke-width:0.4482;stroke-linejoin:round;stroke-miterlimit:2.6131;" points="
			167.625,245.34 163,253.848 165.242,258.328 		"/>
		<polyline style="fill-rule:evenodd;clip-rule:evenodd;fill:#FFEA50;" points="153.578,252.207 163,253.848 165.242,258.328 		"/>
		<polygon style="fill:none;stroke:#CBB500;stroke-width:0.4482;stroke-linejoin:round;stroke-miterlimit:2.6131;" points="
			153.578,252.207 163,253.848 165.242,258.328 		"/>
		<polyline style="fill-rule:evenodd;clip-rule:evenodd;fill:#FFEA50;" points="153.578,252.207 160.156,259.078 165.242,258.328 		
			"/>
		<polygon style="fill:none;stroke:#CBB500;stroke-width:0.4482;stroke-linejoin:round;stroke-miterlimit:2.6131;" points="
			153.578,252.207 160.156,259.078 165.242,258.328 		"/>
		<polyline style="fill-rule:evenodd;clip-rule:evenodd;fill:#FFEA50;" points="155.672,267.605 160.156,259.078 165.242,258.328 		
			"/>
		<polygon style="fill:none;stroke:#CBB500;stroke-width:0.4482;stroke-linejoin:round;stroke-miterlimit:2.6131;" points="
			155.672,267.605 160.156,259.078 165.242,258.328 		"/>
		<polyline style="fill-rule:evenodd;clip-rule:evenodd;fill:#FFEA50;" points="155.672,267.605 164.348,263.414 165.242,258.328 		
			"/>
		<polygon style="fill:none;stroke:#CBB500;stroke-width:0.4482;stroke-linejoin:round;stroke-miterlimit:2.6131;" points="
			155.672,267.605 164.348,263.414 165.242,258.328 		"/>
		<polyline style="fill-rule:evenodd;clip-rule:evenodd;fill:#FFEA50;" points="170.926,270.281 164.348,263.414 165.242,258.328 		
			"/>
		<polygon style="fill:none;stroke:#CBB500;stroke-width:0.4482;stroke-linejoin:round;stroke-miterlimit:2.6131;" points="
			170.926,270.281 164.348,263.414 165.242,258.328 		"/>
		<polyline style="fill-rule:evenodd;clip-rule:evenodd;fill:#FFEA50;" points="170.926,270.281 169.723,260.883 165.242,258.328 		
			"/>
		<polygon style="fill:none;stroke:#CBB500;stroke-width:0.4482;stroke-linejoin:round;stroke-miterlimit:2.6131;" points="
			170.926,270.281 169.723,260.883 165.242,258.328 		"/>
		<polyline style="fill-rule:evenodd;clip-rule:evenodd;fill:#FFEA50;" points="178.395,256.691 169.723,260.883 165.242,258.328 		
			"/>
		<polygon style="fill:none;stroke:#CBB500;stroke-width:0.4482;stroke-linejoin:round;stroke-miterlimit:2.6131;" points="
			178.395,256.691 169.723,260.883 165.242,258.328 		"/>
		<polyline style="fill-rule:evenodd;clip-rule:evenodd;fill:#FFEA50;" points="178.395,256.691 168.828,254.906 165.242,258.328 		
			"/>
		<polygon style="fill:none;stroke:#CBB500;stroke-width:0.4482;stroke-linejoin:round;stroke-miterlimit:2.6131;" points="
			178.395,256.691 168.828,254.906 165.242,258.328 		"/>
		<polyline style="fill-rule:evenodd;clip-rule:evenodd;fill:#FFEA50;" points="559.219,269.391 556.977,278.645 560.277,282.543 		
			"/>
		<polygon style="fill:none;stroke:#CBB500;stroke-width:0.4482;stroke-linejoin:round;stroke-miterlimit:2.6131;" points="
			559.219,269.391 556.977,278.645 560.277,282.543 		"/>
		<polyline style="fill-rule:evenodd;clip-rule:evenodd;fill:#FFEA50;" points="559.219,269.391 562.953,278.207 560.277,282.543 		
			"/>
		<polygon style="fill:none;stroke:#CBB500;stroke-width:0.4482;stroke-linejoin:round;stroke-miterlimit:2.6131;" points="
			559.219,269.391 562.953,278.207 560.277,282.543 		"/>
		<polyline style="fill-rule:evenodd;clip-rule:evenodd;fill:#FFEA50;" points="572.52,277.461 562.953,278.207 560.277,282.543 		
			"/>
		<polygon style="fill:none;stroke:#CBB500;stroke-width:0.4482;stroke-linejoin:round;stroke-miterlimit:2.6131;" points="
			572.52,277.461 562.953,278.207 560.277,282.543 		"/>
		<polyline style="fill-rule:evenodd;clip-rule:evenodd;fill:#FFEA50;" points="572.52,277.461 565.195,283.73 560.277,282.543 		
			"/>
		<polygon style="fill:none;stroke:#CBB500;stroke-width:0.4482;stroke-linejoin:round;stroke-miterlimit:2.6131;" points="
			572.52,277.461 565.195,283.73 560.277,282.543 		"/>
		<polyline style="fill-rule:evenodd;clip-rule:evenodd;fill:#FFEA50;" points="568.789,292.547 565.195,283.73 560.277,282.543 		
			"/>
		<polygon style="fill:none;stroke:#CBB500;stroke-width:0.4482;stroke-linejoin:round;stroke-miterlimit:2.6131;" points="
			568.789,292.547 565.195,283.73 560.277,282.543 		"/>
		<polyline style="fill-rule:evenodd;clip-rule:evenodd;fill:#FFEA50;" points="568.789,292.547 560.711,287.609 560.277,282.543 		
			"/>
		<polygon style="fill:none;stroke:#CBB500;stroke-width:0.4482;stroke-linejoin:round;stroke-miterlimit:2.6131;" points="
			568.789,292.547 560.711,287.609 560.277,282.543 		"/>
		<polyline style="fill-rule:evenodd;clip-rule:evenodd;fill:#FFEA50;" points="553.41,293.75 560.711,287.609 560.277,282.543 		
			"/>
		<polygon style="fill:none;stroke:#CBB500;stroke-width:0.4482;stroke-linejoin:round;stroke-miterlimit:2.6131;" points="
			553.41,293.75 560.711,287.609 560.277,282.543 		"/>
		<polyline style="fill-rule:evenodd;clip-rule:evenodd;fill:#FFEA50;" points="553.41,293.75 555.652,284.477 560.277,282.543 		
			"/>
		<polygon style="fill:none;stroke:#CBB500;stroke-width:0.4482;stroke-linejoin:round;stroke-miterlimit:2.6131;" points="
			553.41,293.75 555.652,284.477 560.277,282.543 		"/>
		<polyline style="fill-rule:evenodd;clip-rule:evenodd;fill:#FFEA50;" points="547.43,279.395 555.652,284.477 560.277,282.543 		
			"/>
		<polygon style="fill:none;stroke:#CBB500;stroke-width:0.4482;stroke-linejoin:round;stroke-miterlimit:2.6131;" points="
			547.43,279.395 555.652,284.477 560.277,282.543 		"/>
		<polyline style="fill-rule:evenodd;clip-rule:evenodd;fill:#FFEA50;" points="547.43,279.395 556.977,278.645 560.277,282.543 		
			"/>
		<polygon style="fill:none;stroke:#CBB500;stroke-width:0.4482;stroke-linejoin:round;stroke-miterlimit:2.6131;" points="
			547.43,279.395 556.977,278.645 560.277,282.543 		"/>
		<polyline style="fill-rule:evenodd;clip-rule:evenodd;fill:#FFEA50;" points="547.578,243.242 545.625,252.664 549.07,256.398 		
			"/>
		<polygon style="fill:none;stroke:#CBB500;stroke-width:0.4482;stroke-linejoin:round;stroke-miterlimit:2.6131;" points="
			547.578,243.242 545.625,252.664 549.07,256.398 		"/>
		<polyline style="fill-rule:evenodd;clip-rule:evenodd;fill:#FFEA50;" points="547.578,243.242 551.605,251.918 549.07,256.398 		
			"/>
		<polygon style="fill:none;stroke:#CBB500;stroke-width:0.4482;stroke-linejoin:round;stroke-miterlimit:2.6131;" points="
			547.578,243.242 551.605,251.918 549.07,256.398 		"/>
		<polyline style="fill-rule:evenodd;clip-rule:evenodd;fill:#FFEA50;" points="561.02,250.859 551.605,251.918 549.07,256.398 		
			"/>
		<polygon style="fill:none;stroke:#CBB500;stroke-width:0.4482;stroke-linejoin:round;stroke-miterlimit:2.6131;" points="
			561.02,250.859 551.605,251.918 549.07,256.398 		"/>
		<polyline style="fill-rule:evenodd;clip-rule:evenodd;fill:#FFEA50;" points="561.02,250.859 553.988,257.289 549.07,256.398 		
			"/>
		<polygon style="fill:none;stroke:#CBB500;stroke-width:0.4482;stroke-linejoin:round;stroke-miterlimit:2.6131;" points="
			561.02,250.859 553.988,257.289 549.07,256.398 		"/>
		<polyline style="fill-rule:evenodd;clip-rule:evenodd;fill:#FFEA50;" points="558.035,266.109 553.988,257.289 549.07,256.398 		
			"/>
		<polygon style="fill:none;stroke:#CBB500;stroke-width:0.4482;stroke-linejoin:round;stroke-miterlimit:2.6131;" points="
			558.035,266.109 553.988,257.289 549.07,256.398 		"/>
		<polyline style="fill-rule:evenodd;clip-rule:evenodd;fill:#FFEA50;" points="558.035,266.109 549.672,261.316 549.07,256.398 		
			"/>
		<polygon style="fill:none;stroke:#CBB500;stroke-width:0.4482;stroke-linejoin:round;stroke-miterlimit:2.6131;" points="
			558.035,266.109 549.672,261.316 549.07,256.398 		"/>
		<polyline style="fill-rule:evenodd;clip-rule:evenodd;fill:#FFEA50;" points="542.641,267.895 549.672,261.316 549.07,256.398 		
			"/>
		<polygon style="fill:none;stroke:#CBB500;stroke-width:0.4482;stroke-linejoin:round;stroke-miterlimit:2.6131;" points="
			542.641,267.895 549.672,261.316 549.07,256.398 		"/>
		<polyline style="fill-rule:evenodd;clip-rule:evenodd;fill:#FFEA50;" points="542.641,267.895 544.445,258.477 549.07,256.398 		
			"/>
		<polygon style="fill:none;stroke:#CBB500;stroke-width:0.4482;stroke-linejoin:round;stroke-miterlimit:2.6131;" points="
			542.641,267.895 544.445,258.477 549.07,256.398 		"/>
		<polyline style="fill-rule:evenodd;clip-rule:evenodd;fill:#FFEA50;" points="536.062,253.848 544.445,258.477 549.07,256.398 		
			"/>
		<polygon style="fill:none;stroke:#CBB500;stroke-width:0.4482;stroke-linejoin:round;stroke-miterlimit:2.6131;" points="
			536.062,253.848 544.445,258.477 549.07,256.398 		"/>
		<polyline style="fill-rule:evenodd;clip-rule:evenodd;fill:#FFEA50;" points="536.062,253.848 545.625,252.664 549.07,256.398 		
			"/>
		<polygon style="fill:none;stroke:#CBB500;stroke-width:0.4482;stroke-linejoin:round;stroke-miterlimit:2.6131;" points="
			536.062,253.848 545.625,252.664 549.07,256.398 		"/>
		<path style="fill-rule:evenodd;clip-rule:evenodd;fill:#AA9900;" d="M324.215,258.328c-2.098,11.352-3.59,15.543-3.59,15.543
			c-0.602-9.422-0.602-8.82-0.602-8.82C323.613,261.461,324.215,258.328,324.215,258.328"/>
		<path style="fill-rule:evenodd;clip-rule:evenodd;fill:#CBB500;" d="M320.625,274.328c-7.762,2.676-15.086,3.734-15.086,3.734
			c9.254-4.793,13.445-9.875,13.445-9.875C322.117,271.34,320.625,274.328,320.625,274.328"/>
	</g>
</g>
</svg>
